<svg width="24" height="24" viewBox="0 0 24 24" fill="none" xmlns="http://www.w3.org/2000/svg">
<path d="M20.0655 15.8595C19.686 14.7074 19.4921 13.5024 19.491 12.2895V9.29249C19.5186 7.39347 18.8409 5.5517 17.589 4.12349C16.3414 2.69303 14.6098 1.77328 12.726 1.54049C11.685 1.43249 10.626 1.54049 9.621 1.88099C8.616 2.20349 7.701 2.74199 6.93 3.46049C6.15515 4.16046 5.53757 5.0168 5.118 5.97299C4.69635 6.92881 4.47626 7.9613 4.4715 9.00599V12.306C4.4693 13.5139 4.27539 14.7139 3.897 15.861L3 18.5145L3.7185 19.5015H8.976C8.976 20.2905 9.2985 21.0615 9.855 21.6195C10.41 22.1745 11.1825 22.4985 11.973 22.4985C12.762 22.4985 13.533 22.176 14.0895 21.6195C14.646 21.063 14.97 20.2905 14.97 19.5015H20.2275L20.9445 18.5145L20.0655 15.8595ZM13.0305 20.58C12.8925 20.7208 12.728 20.8328 12.5465 20.9098C12.365 20.9868 12.1701 21.0271 11.973 21.0285C11.7755 21.0271 11.5803 20.9867 11.3985 20.9094C11.2167 20.8322 11.0521 20.7197 10.914 20.5785C10.773 20.4406 10.6606 20.2762 10.5834 20.0947C10.5061 19.9132 10.4656 19.7182 10.464 19.521H13.4625C13.4688 19.7178 13.4337 19.9137 13.3595 20.0961C13.2854 20.2785 13.1738 20.4434 13.032 20.58H13.0305ZM4.758 18.015L5.3145 16.344C5.74847 15.0422 5.97277 13.6797 5.979 12.3075V9.00599C5.979 8.16149 6.159 7.33649 6.4995 6.58199C6.84 5.81099 7.3245 5.12849 7.953 4.57199C8.5815 3.99899 9.318 3.56699 10.107 3.31649C10.914 3.04649 11.757 2.95649 12.582 3.04649C14.094 3.24531 15.4803 3.99264 16.4775 5.14649C17.475 6.30178 18.0112 7.78443 17.9835 9.31049V12.3255C17.9835 13.689 18.1995 15.0525 18.648 16.362L19.2045 18.0315H4.7595V18.0135L4.758 18.015Z" fill="#959595"/>
</svg>
