<svg width="14" height="14" viewBox="0 0 14 14" fill="none" xmlns="http://www.w3.org/2000/svg">
<path d="M12.4687 5.73125C12.4687 5.73125 11.8125 6.34375 10.6969 7.06562C10.3906 5.29375 9.5375 3.10625 7.875 0.4375C7.875 0.4375 7.32812 3.30312 5.5125 5.99375C4.725 4.76875 4.375 3.80625 4.375 3.80625C-1.3125 9.51562 3.4125 13.5625 6.3875 13.5625C10.1937 13.5625 13.5406 11.725 12.4687 5.73125Z" fill="#FF9D33"/>
<path d="M10.2156 10.8063C10.5438 10.0844 10.7844 9.14375 10.8281 7.9625C10.8281 7.9625 10.3688 8.35625 9.58125 8.85938C9.3625 7.67813 8.77188 6.23438 7.6125 4.44063C7.6125 4.44063 7.24063 6.34375 5.97188 8.15938C5.425 7.35 5.18438 6.69375 5.18438 6.69375C4.24375 8.18125 3.87188 9.3625 3.85 10.3031C3.325 10.1063 2.99688 9.95313 2.99688 9.95313C3.89375 12.6219 5.75313 13.2125 6.58438 13.2125C8.07188 13.2125 9.58125 12.775 11.0688 10.6531C11.0688 10.6313 10.7406 10.7188 10.2156 10.8063Z" fill="#FFCE31"/>
<path d="M4.79063 9.60313C4.79063 9.60313 5.40313 10.4344 5.8625 10.2375C5.8625 10.2375 6.7375 8.85937 8.00625 8.09375C8.00625 8.09375 7.74375 10.1937 8.05 10.5656C8.44375 11.0687 9.51563 10.0187 9.51563 10.0187C9.51563 11.2656 8.15938 12.8187 6.93438 12.8187C5.75313 12.8187 4.04688 11.4625 4.79063 9.60313Z" fill="#FFDF85"/>
<path d="M10.8938 3.95937C11.3531 3.30312 11.6594 2.60312 11.6594 2.60312C12.425 3.87187 11.9656 4.63749 11.6375 4.87812C11.1781 5.22812 10.3688 4.72499 10.8938 3.95937Z" fill="#FF9D33"/>
<path d="M2.5375 3.74062C2.07813 2.975 2.03438 2.0125 2.03438 2.0125C0.940627 3.65312 1.35625 4.57187 1.72813 4.83437C2.20938 5.20625 3.04063 4.6375 2.5375 3.74062Z" fill="#FF9D33"/>
<path d="M5.075 2.03438C5.14063 1.50938 4.92188 0.984375 4.92188 0.984375C5.95 1.6625 5.95 2.23125 5.81875 2.47188C5.62188 2.75625 5.00938 2.625 5.075 2.03438Z" fill="#FF9D33"/>
</svg>

