<svg width="14" height="14" viewBox="0 0 14 14" fill="none" xmlns="http://www.w3.org/2000/svg">
<path d="M4.44325 5.082L6.31283 3.724C6.52271 3.57041 6.77798 3.49155 7.03792 3.5C7.35496 3.50791 7.66167 3.6144 7.91539 3.80467C8.16912 3.99493 8.35726 4.25953 8.45367 4.56167C8.56217 4.90175 8.66133 5.13158 8.75117 5.25117C9.0226 5.6133 9.3747 5.90719 9.77953 6.1095C10.1844 6.31181 10.6308 6.41698 11.0833 6.41667V7.58333C10.4809 7.58399 9.88586 7.45108 9.34098 7.19417C8.79609 6.93726 8.31495 6.56275 7.93217 6.09758L7.52558 8.40467L8.72783 9.41383L10.0246 12.9768L8.92792 13.3758L7.73792 10.1068L5.76042 8.44725C5.59813 8.31621 5.47395 8.14405 5.4008 7.94871C5.32765 7.75337 5.30821 7.54199 5.3445 7.33658L5.64142 5.65367L5.2465 5.94067L4.00575 7.64867L3.06192 6.96267L4.43333 5.075L4.44325 5.082ZM7.875 3.20833C7.56558 3.20833 7.26883 3.08542 7.05004 2.86662C6.83125 2.64783 6.70833 2.35109 6.70833 2.04167C6.70833 1.73225 6.83125 1.4355 7.05004 1.21671C7.26883 0.997916 7.56558 0.875 7.875 0.875C8.18442 0.875 8.48116 0.997916 8.69996 1.21671C8.91875 1.4355 9.04167 1.73225 9.04167 2.04167C9.04167 2.35109 8.91875 2.64783 8.69996 2.86662C8.48116 3.08542 8.18442 3.20833 7.875 3.20833ZM6.14133 10.8972L4.2665 13.1314L3.37283 12.3818L5.10883 10.3133L5.544 9.04167L6.58875 9.91667L6.14133 10.8972Z" fill="#5B20D9"/>
</svg>
