<svg width="14" height="14" viewBox="0 0 14 14" fill="none" xmlns="http://www.w3.org/2000/svg">
<path d="M3.56941 9.7975C3.21859 9.84891 2.64109 9.94461 2.25691 9.50875C1.87273 9.07289 1.5405 8.02043 1.39449 7.07981C1.17902 5.69348 1.39285 4.52508 1.99605 3.79008C2.35152 3.35723 2.818 3.10649 3.34519 3.06656C3.79664 3.03184 4.47121 3.20848 5.12254 4.24754C5.5305 4.8986 5.84086 5.76348 5.97402 6.62016C6.1348 7.6543 6.29148 8.75789 5.74324 9.15356C5.43398 9.37696 5.21195 9.45434 4.68722 9.5793C4.25574 9.68184 3.9205 9.74582 3.56941 9.7975V9.7975Z" fill="#FF93A0"/>
<path d="M2.94556 10.687L5.92302 10.0729C6.17458 10.0209 6.37638 10.1593 6.4699 10.5738C6.77669 11.9344 6.337 13.5625 4.95997 13.5625C3.65595 13.5625 2.78697 12.0761 2.64505 11.2771C2.58025 10.9148 2.67267 10.7431 2.94556 10.687V10.687Z" fill="#FF93A0"/>
<path d="M9.31299 6.95457C8.78826 6.83016 8.56623 6.75223 8.25698 6.52883C7.70873 6.13317 7.86541 5.02957 8.02619 3.99543C8.15936 3.13875 8.46971 2.27278 8.87768 1.62282C9.52846 0.583753 10.203 0.407113 10.655 0.441839C11.1817 0.482035 11.6484 0.73223 12.0039 1.16508C12.6076 1.90008 12.8215 3.06848 12.6055 4.45481C12.4592 5.39543 12.128 6.44434 11.7417 6.88375C11.3553 7.32317 10.7811 7.22391 10.4292 7.1725C10.0772 7.1211 9.7442 7.05684 9.31299 6.95457V6.95457Z" fill="#FF93A0"/>
<path d="M11.0547 8.06201L8.07721 7.44787C7.82565 7.39591 7.62385 7.53427 7.53034 7.9488C7.22381 9.30943 7.6635 10.9375 9.04053 10.9375C10.3446 10.9375 11.2135 9.45107 11.3555 8.65209C11.42 8.28978 11.3276 8.11806 11.0547 8.06201V8.06201Z" fill="#FF93A0"/>
</svg>
