<svg width="24" height="24" viewBox="0 0 24 24" fill="none" xmlns="http://www.w3.org/2000/svg">
<path d="M16.2377 8.26811C14.0166 5.73844 13.0348 3.58698 12.4724 2.30332C12.2944 1.89889 11.7039 1.89889 11.5276 2.30332C10.9652 3.58698 9.98338 5.73844 7.76228 8.26811C6.37144 9.85305 5 12.1731 5 14.4589C5 18.359 8.03022 21 12 21C15.9698 21 19 18.3573 19 14.4589C19 12.0831 17.6286 9.85305 16.2377 8.26811V8.26811Z" fill="#E1FFF8"/>
<path d="M14.0575 14.97C15.2481 12.705 15.0794 10.4888 16.0206 10.8881C17.2994 11.4338 18.715 14.2369 18.1844 16.7775C17.8056 18.5888 16.5831 19.6856 15.025 19.1625C13.7669 18.7406 12.985 17.01 14.0575 14.97Z" fill="#E1FFF8"/>
</svg>
