<svg width="14" height="14" viewBox="0 0 14 14" fill="none" xmlns="http://www.w3.org/2000/svg">
<path d="M7.58145 8.96484C7.57861 8.96987 7.57511 8.97425 7.57227 8.97906C7.57948 8.98147 7.58583 8.98497 7.59239 8.98737C7.5878 8.98016 7.58605 8.9725 7.58145 8.96484Z" fill="#EFB086"/>
<path d="M9.65122 7.94485C10.1985 7.86676 11.875 8.46788 12.0087 6.84454C12.1334 5.33429 10.4665 5.67773 9.82797 5.65301C9.46944 5.61932 7.67219 5.54057 7.31497 5.43426C7.27553 5.41429 7.23685 5.39283 7.19903 5.36995C7.40619 4.97838 7.72797 4.61592 7.98741 4.28888C8.19631 4.0942 8.35119 3.83848 8.45203 3.51735C8.5769 3.21967 8.66285 2.90712 8.70775 2.58745C8.7749 2.12567 8.70228 1.59388 8.51087 1.12138C8.47079 1.00543 8.42412 0.891861 8.37109 0.781228C8.25866 0.550228 8.05106 0.30829 7.80125 0.118415C7.726 0.0608842 7.65053 0.0247905 7.57025 0.00947796C7.39415 -0.0248658 7.18569 0.0333217 6.89387 0.197165C6.66637 0.323165 6.63072 0.500353 6.63619 0.850572C6.63794 0.959947 6.65369 1.0807 6.68344 1.22923C6.85997 2.09329 6.56553 2.86526 5.83359 3.4607C5.24384 3.9426 4.76347 4.25542 4.27609 4.47613C2.68075 5.19976 1.92628 6.38845 1.97112 8.11001C1.98075 8.52913 1.97747 8.94717 1.97397 9.36607L1.97112 10.2627C1.96478 11.547 2.44778 12.7862 3.62662 13.3642C4.35156 13.7181 7.45234 13.5829 8.65087 13.8437C9.10106 13.9417 10.2016 14.1878 10.356 13.3738C10.5466 12.4669 9.33709 12.6489 9.03478 12.3358C9.46462 12.2089 11.1779 13.0306 11.3002 11.5859C11.4148 10.2349 9.83453 10.3756 9.56175 10.2061C10.0752 10.2647 11.6843 10.4778 11.7558 9.40304C11.8308 8.28107 10.8449 8.08179 9.65231 7.94551" fill="#EFB086"/>
<path d="M9.57213 6.54324C9.52291 5.90055 9.22891 6.40849 9.25756 6.78649C9.39691 8.61371 9.41113 10.8336 8.55975 12.5156C8.45694 12.7177 8.58032 13.5767 8.70544 13.3291C9.71825 11.3286 9.73859 8.72439 9.57213 6.54346" fill="#DDA57F"/>
</svg>
