<svg width="14" height="14" viewBox="0 0 14 14" fill="none" xmlns="http://www.w3.org/2000/svg">
<path d="M1.1665 4.90005C1.16643 4.48143 1.2498 4.067 1.41174 3.68097C1.57368 3.29494 1.81093 2.94507 2.10965 2.65179C2.40836 2.35851 2.76253 2.12771 3.15146 1.97288C3.5404 1.81805 3.95629 1.7423 4.37484 1.75005C4.87007 1.74742 5.3602 1.85008 5.81275 2.05121C6.2653 2.25234 6.66994 2.54736 6.99984 2.91672C7.32974 2.54736 7.73437 2.25234 8.18693 2.05121C8.63948 1.85008 9.12961 1.74742 9.62484 1.75005C10.0434 1.7423 10.4593 1.81805 10.8482 1.97288C11.2371 2.12771 11.5913 2.35851 11.89 2.65179C12.1887 2.94507 12.426 3.29494 12.5879 3.68097C12.7499 4.067 12.8332 4.48143 12.8332 4.90005C12.8332 8.02439 9.11209 10.3834 6.99984 12.2501C4.89225 10.3676 1.1665 8.02672 1.1665 4.90005Z" fill="#FF4D58"/>
</svg>
