<svg width="14" height="14" viewBox="0 0 14 14" fill="none" xmlns="http://www.w3.org/2000/svg">
<circle cx="6.99984" cy="7.00033" r="5.83333" fill="black"/>
<path d="M7.00006 0.777344C5.76942 0.777344 4.56641 1.14227 3.54318 1.82598C2.51994 2.50968 1.72242 3.48146 1.25147 4.61842C0.780528 5.75539 0.657307 7.00647 0.897393 8.21346C1.13748 9.42045 1.73009 10.5291 2.60028 11.3993C3.47047 12.2695 4.57917 12.8621 5.78616 13.1022C6.99315 13.3423 8.24424 13.2191 9.3812 12.7482C10.5182 12.2772 11.4899 11.4797 12.1736 10.4564C12.8574 9.43321 13.2223 8.23021 13.2223 6.99957C13.2223 5.34933 12.5667 3.76668 11.3998 2.59979C10.2329 1.4329 8.65029 0.777344 7.00006 0.777344ZM10.5001 5.5529C10.5001 5.69135 10.459 5.82668 10.3821 5.9418C10.3052 6.05691 10.1958 6.14663 10.0679 6.19962C9.94003 6.2526 9.79928 6.26646 9.66349 6.23945C9.52771 6.21244 9.40298 6.14577 9.30508 6.04787C9.20718 5.94998 9.14052 5.82525 9.11351 5.68946C9.0865 5.55368 9.10036 5.41293 9.15334 5.28502C9.20632 5.15711 9.29604 5.04779 9.41116 4.97087C9.52627 4.89395 9.66161 4.8529 9.80006 4.8529C9.98571 4.8529 10.1638 4.92665 10.295 5.05792C10.4263 5.1892 10.5001 5.36725 10.5001 5.5529ZM4.45283 6.2529C4.31439 6.2529 4.17905 6.21185 4.06394 6.13493C3.94882 6.05801 3.8591 5.94869 3.80612 5.82078C3.75314 5.69287 3.73928 5.55212 3.76628 5.41634C3.79329 5.28055 3.85996 5.15582 3.95786 5.05792C4.05576 4.96003 4.18048 4.89336 4.31627 4.86635C4.45206 4.83934 4.5928 4.8532 4.72071 4.90618C4.84862 4.95917 4.95795 5.04889 5.03486 5.164C5.11178 5.27911 5.15283 5.41445 5.15283 5.5529C5.15286 5.64615 5.13425 5.73846 5.0981 5.82442C5.06195 5.91038 5.009 5.98825 4.94234 6.05346C4.87568 6.11866 4.79667 6.1699 4.70994 6.20415C4.62321 6.2384 4.5305 6.25497 4.43728 6.2529H4.45283ZM9.89728 9.18123C9.95916 9.26374 9.98573 9.36746 9.97115 9.46956C9.95656 9.57167 9.90201 9.66379 9.8195 9.72568C9.73699 9.78756 9.63327 9.81413 9.53117 9.79955C9.42907 9.78496 9.33694 9.73041 9.27506 9.6479C9.01844 9.30445 8.68433 9.02647 8.29994 8.83659C7.91555 8.64672 7.49174 8.55032 7.06304 8.55525C6.63434 8.56018 6.21286 8.66629 5.83294 8.86495C5.45301 9.06361 5.12538 9.3492 4.87672 9.69845C4.8169 9.78251 4.72614 9.83937 4.6244 9.85651C4.52266 9.87364 4.41828 9.84966 4.33422 9.78984C4.25016 9.73002 4.19331 9.63926 4.17617 9.53752C4.15903 9.43578 4.18301 9.3314 4.24283 9.24734C4.56246 8.79834 4.9836 8.43117 5.47198 8.17572C5.96035 7.92027 6.50215 7.78377 7.05326 7.77733C7.60437 7.77088 8.14921 7.89468 8.64342 8.13864C9.13763 8.3826 9.56724 8.73983 9.89728 9.18123Z" fill="#FFE661"/>
</svg>
