<svg width="14" height="14" viewBox="0 0 14 14" fill="none" xmlns="http://www.w3.org/2000/svg">
<circle cx="7.00016" cy="7.00016" r="4.66667" fill="black"/>
<path d="M6.85401 1.1665C5.72912 1.1665 4.6295 1.50007 3.6942 2.12502C2.7589 2.74997 2.02991 3.63824 1.59944 4.67749C1.16897 5.71675 1.05634 6.86031 1.27579 7.96358C1.49524 9.06685 2.03693 10.0803 2.83234 10.8757C3.62775 11.6711 4.64116 12.2128 5.74443 12.4322C6.8477 12.6517 7.99126 12.539 9.03052 12.1086C10.0698 11.6781 10.958 10.9491 11.583 10.0138C12.2079 9.0785 12.5415 7.97888 12.5415 6.854C12.5398 5.34612 11.94 3.90049 10.8738 2.83425C9.80752 1.76802 8.36189 1.16824 6.85401 1.1665ZM8.82276 5.104C8.95255 5.104 9.07943 5.14249 9.18735 5.2146C9.29527 5.28671 9.37938 5.3892 9.42905 5.50912C9.47872 5.62903 9.49172 5.76098 9.4664 5.88828C9.44108 6.01558 9.37857 6.13251 9.28679 6.22429C9.19502 6.31607 9.07808 6.37857 8.95078 6.40389C8.82348 6.42922 8.69153 6.41622 8.57162 6.36655C8.45171 6.31688 8.34921 6.23277 8.2771 6.12485C8.20499 6.01693 8.16651 5.89005 8.16651 5.76025C8.16651 5.58621 8.23565 5.41929 8.35872 5.29622C8.48179 5.17314 8.64871 5.104 8.82276 5.104ZM4.88526 5.104C5.01505 5.104 5.14193 5.14249 5.24985 5.2146C5.35777 5.28671 5.44188 5.3892 5.49155 5.50912C5.54122 5.62903 5.55422 5.76098 5.5289 5.88828C5.50358 6.01558 5.44107 6.13251 5.3493 6.22429C5.25752 6.31607 5.14058 6.37857 5.01328 6.40389C4.88598 6.42922 4.75403 6.41622 4.63412 6.36655C4.51421 6.31688 4.41171 6.23277 4.3396 6.12485C4.26749 6.01693 4.22901 5.89005 4.22901 5.76025C4.22901 5.58621 4.29815 5.41929 4.42122 5.29622C4.54429 5.17314 4.71121 5.104 4.88526 5.104ZM9.50662 8.38542C9.23771 8.85095 8.85102 9.23751 8.3854 9.50627C7.91978 9.77503 7.39162 9.91651 6.85401 9.91651C6.31639 9.91651 5.78824 9.77503 5.32262 9.50627C4.85699 9.23751 4.4703 8.85095 4.20139 8.38542C4.17206 8.33566 4.15288 8.28059 4.14494 8.22338C4.13701 8.16617 4.14048 8.10796 4.15516 8.0521C4.16983 7.99623 4.19543 7.94383 4.23046 7.89791C4.26549 7.85199 4.30927 7.81346 4.35926 7.78455C4.40926 7.75563 4.46449 7.7369 4.52176 7.72944C4.57903 7.72198 4.63722 7.72593 4.69296 7.74107C4.74869 7.7562 4.80088 7.78223 4.84651 7.81764C4.89214 7.85304 4.93031 7.89714 4.95881 7.94737C5.15088 8.28005 5.42714 8.55631 5.75981 8.74838C6.09249 8.94045 6.46986 9.04157 6.85401 9.04157C7.23815 9.04157 7.61552 8.94045 7.9482 8.74838C8.28088 8.55631 8.55713 8.28005 8.7492 7.94737C8.7777 7.89714 8.81587 7.85304 8.8615 7.81764C8.90713 7.78223 8.95932 7.7562 9.01506 7.74107C9.07079 7.72593 9.12898 7.72198 9.18625 7.72944C9.24352 7.7369 9.29875 7.75563 9.34875 7.78455C9.39875 7.81346 9.44252 7.85199 9.47756 7.89791C9.51259 7.94383 9.53818 7.99623 9.55286 8.0521C9.56753 8.10796 9.571 8.16617 9.56307 8.22338C9.55513 8.28059 9.53595 8.33566 9.50662 8.38542Z" fill="#FFE661"/>
</svg>
