<svg width="32" height="32" viewBox="0 0 32 32" fill="none" xmlns="http://www.w3.org/2000/svg">
<path d="M19.9509 16.8737C21.1829 16.8737 22.3883 17.0781 23.5279 17.4729C23.6479 17.5131 23.7588 17.5767 23.854 17.6602C23.9492 17.7436 24.0268 17.8452 24.0823 17.9589C24.1378 18.0727 24.1701 18.1964 24.1773 18.3228C24.1845 18.4492 24.1665 18.5757 24.1243 18.6951C24.0352 18.9368 23.8545 19.1337 23.6213 19.2432C23.3881 19.3527 23.1212 19.366 22.8783 19.2802C21.9371 18.9547 20.9481 18.7891 19.9523 18.7902C15.0985 18.7902 11.1659 22.6499 11.1659 27.4125C11.1659 27.7037 11.1799 27.992 11.2079 28.279C11.2196 28.4053 11.2063 28.5326 11.1687 28.6537C11.1312 28.7748 11.07 28.8873 10.9889 28.9847C10.9077 29.0821 10.8081 29.1626 10.6958 29.2214C10.5834 29.2803 10.4606 29.3163 10.3343 29.3276C10.0788 29.3547 9.8229 29.2795 9.6227 29.1184C9.42251 28.9573 9.29429 28.7234 9.2661 28.468C9.23058 28.1173 9.21282 27.765 9.2129 27.4125C9.2129 21.5929 14.0205 16.8737 19.9509 16.8737ZM25.7553 18.7902C26.013 18.7928 26.2595 18.8957 26.4425 19.0771C26.6255 19.2585 26.7306 19.5042 26.7353 19.7618V22.9243L29.6949 22.9173C29.9281 22.9215 30.1524 23.0079 30.3281 23.1613C30.5038 23.3147 30.6197 23.5253 30.6553 23.7558L30.6665 23.8986C30.6674 24.0249 30.6431 24.15 30.5949 24.2667C30.5467 24.3833 30.4756 24.4891 30.3858 24.5779C30.296 24.6666 30.1894 24.7365 30.0721 24.7833C29.9549 24.8301 29.8295 24.853 29.7033 24.8506L26.7353 24.8576V28.1754C26.7437 28.7102 26.3167 29.1414 25.7833 29.1386C25.5256 29.1361 25.279 29.0332 25.096 28.8518C24.913 28.6703 24.808 28.4247 24.8033 28.167L24.8019 24.8618L21.2879 24.8716C21.0551 24.8671 20.8313 24.7807 20.6559 24.6276C20.4805 24.4745 20.3647 24.2645 20.3289 24.0344L20.3177 23.8902C20.3167 23.7641 20.341 23.6391 20.3892 23.5225C20.4373 23.406 20.5082 23.3002 20.5979 23.2115C20.6875 23.1228 20.794 23.0529 20.9111 23.006C21.0281 22.959 21.1534 22.936 21.2795 22.9383L24.8019 22.9285V19.752C24.7996 19.6258 24.8227 19.5004 24.8697 19.3833C24.9167 19.2661 24.9867 19.1596 25.0756 19.0699C25.1645 18.9803 25.2704 18.9093 25.3871 18.8613C25.5039 18.8133 25.6291 18.7891 25.7553 18.7902ZM13.4059 12.8405C13.5329 12.8392 13.6589 12.863 13.7766 12.9104C13.8944 12.9578 14.0017 13.028 14.0923 13.117C14.183 13.2059 14.2552 13.3118 14.3048 13.4287C14.3545 13.5456 14.3806 13.6711 14.3817 13.7981C14.3808 13.9252 14.3548 14.0508 14.3052 14.1678C14.2557 14.2849 14.1835 14.391 14.0928 14.4801C14.0022 14.5691 13.8948 14.6395 13.777 14.687C13.6591 14.7345 13.533 14.7583 13.4059 14.757C8.5521 14.757 4.6195 18.6167 4.6195 23.3792C4.6195 23.669 4.6335 23.9588 4.6615 24.2444C4.67344 24.3708 4.66028 24.4983 4.62279 24.6195C4.58529 24.7408 4.52419 24.8534 4.44301 24.951C4.36182 25.0486 4.26215 25.1291 4.14973 25.1881C4.0373 25.247 3.91434 25.2831 3.7879 25.2944C3.53237 25.3215 3.27651 25.2462 3.07631 25.0851C2.87612 24.924 2.74789 24.6902 2.7197 24.4348C2.68419 24.0841 2.66643 23.7318 2.6665 23.3792C2.6665 17.5583 7.4741 12.8405 13.4045 12.8405H13.4059ZM20.3191 5.48523C23.3753 5.48523 25.8519 7.91692 25.8519 10.9142C25.8519 13.9129 23.3739 16.3432 20.3191 16.3432C17.2643 16.3432 14.7877 13.9129 14.7877 10.9142C14.7877 7.91692 17.2643 5.48523 20.3191 5.48523ZM20.3191 7.40174C18.3423 7.40174 16.7393 8.97387 16.7393 10.9156C16.7393 12.8545 18.3423 14.4266 20.3191 14.4266C22.2959 14.4266 23.8989 12.8545 23.8989 10.9142C23.8989 8.97387 22.2959 7.40174 20.3191 7.40174ZM13.9015 1.33301C15.6445 1.33301 17.2545 2.13097 18.2947 3.46091C18.6223 3.8809 18.5411 4.48287 18.1127 4.80486C17.9065 4.95933 17.6481 5.02718 17.3926 4.99398C17.1372 4.96077 16.9047 4.82911 16.7449 4.62706C16.4071 4.19609 15.9754 3.84795 15.4826 3.60922C14.9899 3.37048 14.4491 3.24745 13.9015 3.24952C11.9247 3.24952 10.3217 4.82166 10.3217 6.76197C10.3217 8.4587 11.5565 9.90483 13.2351 10.2142C13.7643 10.3122 14.1143 10.812 14.0149 11.3328C13.9638 11.5848 13.8153 11.8065 13.6016 11.9497C13.388 12.0928 13.1264 12.1458 12.8739 12.0971C10.2769 11.6184 8.3687 9.38406 8.3687 6.76197C8.3687 3.7633 10.8467 1.33301 13.9015 1.33301Z" fill="#1A1B41"/>
</svg>
