<svg width="32" height="32" viewBox="0 0 32 32" fill="none" xmlns="http://www.w3.org/2000/svg">
<path d="M19.9504 16.874C21.1824 16.874 22.3878 17.0784 23.5274 17.4731C23.6475 17.5133 23.7583 17.577 23.8535 17.6604C23.9487 17.7439 24.0263 17.8454 24.0818 17.9592C24.1373 18.073 24.1696 18.1966 24.1769 18.323C24.1841 18.4494 24.166 18.576 24.1238 18.6953C24.0347 18.937 23.854 19.134 23.6208 19.2435C23.3877 19.353 23.1207 19.3663 22.8778 19.2805C21.9367 18.955 20.9476 18.7894 19.9518 18.7905C15.098 18.7905 11.1654 22.6501 11.1654 27.4127C11.1654 27.7039 11.1794 27.9923 11.2074 28.2793C11.2191 28.4055 11.2058 28.5329 11.1683 28.654C11.1307 28.7751 11.0695 28.8876 10.9884 28.985C10.9072 29.0824 10.8076 29.1628 10.6953 29.2217C10.583 29.2805 10.4601 29.3166 10.3338 29.3278C10.0783 29.3549 9.82241 29.2797 9.62222 29.1186C9.42202 28.9575 9.2938 28.7237 9.26561 28.4683C9.23009 28.1175 9.21234 27.7652 9.21241 27.4127C9.21241 21.5932 14.02 16.874 19.9504 16.874ZM25.7548 18.7905C26.0125 18.793 26.259 18.8959 26.442 19.0773C26.625 19.2588 26.7301 19.5044 26.7348 19.762V22.9245L29.6944 22.9175C29.9276 22.9217 30.1519 23.0081 30.3276 23.1616C30.5033 23.315 30.6192 23.5255 30.6548 23.7561L30.666 23.8989C30.6669 24.0251 30.6426 24.1502 30.5944 24.2669C30.5462 24.3836 30.4751 24.4894 30.3853 24.5781C30.2955 24.6669 30.1889 24.7367 30.0716 24.7835C29.9544 24.8304 29.829 24.8533 29.7028 24.8508L26.7348 24.8578V28.1757C26.7432 28.7105 26.3162 29.1416 25.7828 29.1388C25.5251 29.1363 25.2786 29.0334 25.0956 28.852C24.9125 28.6706 24.8075 28.4249 24.8028 28.1673L24.8014 24.862L21.2874 24.8718C21.0546 24.8674 20.8308 24.781 20.6555 24.6279C20.4801 24.4747 20.3643 24.2647 20.3284 24.0347L20.3172 23.8905C20.3162 23.7644 20.3405 23.6393 20.3887 23.5228C20.4368 23.4062 20.5078 23.3004 20.5974 23.2117C20.687 23.123 20.7935 23.0531 20.9106 23.0062C21.0276 22.9593 21.1529 22.9363 21.279 22.9385L24.8014 22.9287V19.7522C24.7991 19.626 24.8222 19.5007 24.8692 19.3835C24.9162 19.2664 24.9862 19.1598 25.0751 19.0702C25.164 18.9805 25.2699 18.9096 25.3866 18.8615C25.5034 18.8135 25.6286 18.7893 25.7548 18.7905ZM13.4054 12.8407C13.5324 12.8395 13.6584 12.8632 13.7762 12.9107C13.8939 12.9581 14.0012 13.0283 14.0918 13.1172C14.1825 13.2062 14.2547 13.3121 14.3043 13.429C14.354 13.5458 14.3801 13.6713 14.3812 13.7983C14.3803 13.9254 14.3543 14.0511 14.3047 14.1681C14.2552 14.2851 14.183 14.3912 14.0923 14.4803C14.0017 14.5694 13.8943 14.6397 13.7765 14.6872C13.6586 14.7348 13.5325 14.7586 13.4054 14.7573C8.55161 14.7573 4.61901 18.6169 4.61901 23.3795C4.61901 23.6693 4.63301 23.9591 4.66101 24.2447C4.67295 24.371 4.65979 24.4985 4.6223 24.6198C4.5848 24.741 4.5237 24.8537 4.44252 24.9513C4.36134 25.0488 4.26167 25.1294 4.14924 25.1883C4.03681 25.2472 3.91385 25.2834 3.78741 25.2946C3.53188 25.3217 3.27602 25.2465 3.07582 25.0854C2.87563 24.9243 2.7474 24.6905 2.71922 24.435C2.6837 24.0843 2.66594 23.732 2.66602 23.3795C2.66602 17.5585 7.47361 12.8407 13.404 12.8407H13.4054ZM20.3186 5.48547C23.3748 5.48547 25.8514 7.91716 25.8514 10.9144C25.8514 13.9131 23.3734 16.3434 20.3186 16.3434C17.2638 16.3434 14.7872 13.9131 14.7872 10.9144C14.7872 7.91716 17.2638 5.48547 20.3186 5.48547ZM20.3186 7.40199C18.3418 7.40199 16.7388 8.97412 16.7388 10.9158C16.7388 12.8547 18.3418 14.4269 20.3186 14.4269C22.2954 14.4269 23.8984 12.8547 23.8984 10.9144C23.8984 8.97412 22.2954 7.40199 20.3186 7.40199ZM13.901 1.33325C15.644 1.33325 17.254 2.13122 18.2942 3.46116C18.6218 3.88114 18.5406 4.48311 18.1122 4.8051C17.906 4.95957 17.6476 5.02743 17.3922 4.99422C17.1367 4.96101 16.9042 4.82936 16.7444 4.62731C16.4067 4.19633 15.9749 3.8482 15.4821 3.60946C14.9894 3.37072 14.4486 3.2477 13.901 3.24977C11.9242 3.24977 10.3212 4.8219 10.3212 6.76222C10.3212 8.45894 11.556 9.90508 13.2346 10.2145C13.7638 10.3125 14.1138 10.8122 14.0144 11.333C13.9633 11.5851 13.8148 11.8068 13.6011 11.9499C13.3875 12.093 13.1259 12.146 12.8734 12.0974C10.2764 11.6186 8.36821 9.3843 8.36821 6.76222C8.36821 3.76355 10.8462 1.33325 13.901 1.33325Z" fill="#959595"/>
</svg>
