<svg width="32" height="32" viewBox="0 0 32 32" fill="none" xmlns="http://www.w3.org/2000/svg">
<path d="M19.9509 16.8742C21.1829 16.8742 22.3883 17.0786 23.5279 17.4734C23.6479 17.5135 23.7588 17.5772 23.854 17.6606C23.9492 17.7441 24.0268 17.8457 24.0823 17.9594C24.1378 18.0732 24.1701 18.1969 24.1773 18.3233C24.1845 18.4496 24.1665 18.5762 24.1243 18.6955C24.0352 18.9373 23.8545 19.1342 23.6213 19.2437C23.3881 19.3532 23.1212 19.3665 22.8783 19.2807C21.9371 18.9552 20.9481 18.7896 19.9523 18.7907C15.0985 18.7907 11.1659 22.6504 11.1659 27.413C11.1659 27.7041 11.1799 27.9925 11.2079 28.2795C11.2196 28.4058 11.2063 28.5331 11.1687 28.6542C11.1312 28.7753 11.07 28.8878 10.9889 28.9852C10.9077 29.0826 10.8081 29.1631 10.6958 29.2219C10.5834 29.2807 10.4606 29.3168 10.3343 29.3281C10.0788 29.3552 9.8229 29.2799 9.6227 29.1188C9.42251 28.9578 9.29429 28.7239 9.2661 28.4685C9.23058 28.1178 9.21282 27.7655 9.2129 27.413C9.2129 21.5934 14.0205 16.8742 19.9509 16.8742ZM25.7553 18.7907C26.013 18.7932 26.2595 18.8961 26.4425 19.0776C26.6255 19.259 26.7306 19.5046 26.7353 19.7623V22.9248L29.6949 22.9178C29.9281 22.922 30.1524 23.0084 30.3281 23.1618C30.5038 23.3152 30.6197 23.5258 30.6553 23.7563L30.6665 23.8991C30.6674 24.0253 30.6431 24.1505 30.5949 24.2671C30.5467 24.3838 30.4756 24.4896 30.3858 24.5784C30.296 24.6671 30.1894 24.737 30.0721 24.7838C29.9549 24.8306 29.8295 24.8535 29.7033 24.8511L26.7353 24.8581V28.1759C26.7437 28.7107 26.3167 29.1419 25.7833 29.1391C25.5256 29.1366 25.279 29.0337 25.096 28.8522C24.913 28.6708 24.808 28.4252 24.8033 28.1675L24.8019 24.8623L21.2879 24.8721C21.0551 24.8676 20.8313 24.7812 20.6559 24.6281C20.4805 24.475 20.3647 24.2649 20.3289 24.0349L20.3177 23.8907C20.3167 23.7646 20.341 23.6396 20.3892 23.523C20.4373 23.4064 20.5082 23.3007 20.5979 23.212C20.6875 23.1232 20.794 23.0534 20.9111 23.0064C21.0281 22.9595 21.1534 22.9365 21.2795 22.9388L24.8019 22.929V19.7525C24.7996 19.6263 24.8227 19.5009 24.8697 19.3837C24.9167 19.2666 24.9867 19.1601 25.0756 19.0704C25.1645 18.9808 25.2704 18.9098 25.3871 18.8618C25.5039 18.8138 25.6291 18.7896 25.7553 18.7907ZM13.4059 12.841C13.5329 12.8397 13.6589 12.8635 13.7766 12.9109C13.8944 12.9583 14.0017 13.0285 14.0923 13.1175C14.183 13.2064 14.2552 13.3123 14.3048 13.4292C14.3545 13.5461 14.3806 13.6716 14.3817 13.7986C14.3808 13.9256 14.3548 14.0513 14.3052 14.1683C14.2557 14.2854 14.1835 14.3915 14.0928 14.4805C14.0022 14.5696 13.8948 14.6399 13.777 14.6875C13.6591 14.735 13.533 14.7588 13.4059 14.7575C8.5521 14.7575 4.6195 18.6171 4.6195 23.3797C4.6195 23.6695 4.6335 23.9593 4.6615 24.2449C4.67344 24.3713 4.66028 24.4987 4.62279 24.62C4.58529 24.7413 4.52419 24.8539 4.44301 24.9515C4.36182 25.0491 4.26215 25.1296 4.14973 25.1886C4.0373 25.2475 3.91434 25.2836 3.7879 25.2948C3.53237 25.3219 3.27651 25.2467 3.07631 25.0856C2.87612 24.9245 2.74789 24.6907 2.7197 24.4353C2.68419 24.0846 2.66643 23.7323 2.6665 23.3797C2.6665 17.5588 7.4741 12.841 13.4045 12.841H13.4059ZM20.3191 5.48571C23.3753 5.48571 25.8519 7.91741 25.8519 10.9147C25.8519 13.9133 23.3739 16.3436 20.3191 16.3436C17.2643 16.3436 14.7877 13.9133 14.7877 10.9147C14.7877 7.91741 17.2643 5.48571 20.3191 5.48571ZM20.3191 7.40223C18.3423 7.40223 16.7393 8.97436 16.7393 10.9161C16.7393 12.855 18.3423 14.4271 20.3191 14.4271C22.2959 14.4271 23.8989 12.855 23.8989 10.9147C23.8989 8.97436 22.2959 7.40223 20.3191 7.40223ZM13.9015 1.3335C15.6445 1.3335 17.2545 2.13146 18.2947 3.4614C18.6223 3.88138 18.5411 4.48336 18.1127 4.80534C17.9065 4.95981 17.6481 5.02767 17.3926 4.99446C17.1372 4.96125 16.9047 4.8296 16.7449 4.62755C16.4071 4.19658 15.9754 3.84844 15.4826 3.6097C14.9899 3.37097 14.4491 3.24794 13.9015 3.25001C11.9247 3.25001 10.3217 4.82214 10.3217 6.76246C10.3217 8.45919 11.5565 9.90532 13.2351 10.2147C13.7643 10.3127 14.1143 10.8125 14.0149 11.3333C13.9638 11.5853 13.8153 11.807 13.6016 11.9501C13.388 12.0933 13.1264 12.1463 12.8739 12.0976C10.2769 11.6188 8.3687 9.38455 8.3687 6.76246C8.3687 3.76379 10.8467 1.3335 13.9015 1.3335Z" fill="#959595"/>
</svg>
