<svg width="32" height="36" viewBox="0 0 32 36" fill="none" xmlns="http://www.w3.org/2000/svg">
<path d="M22 15.75C20.5943 15.7506 19.214 16.1711 18 16.9684V10.125C18 8.03642 17.2625 6.03338 15.9498 4.55653C14.637 3.07969 12.8565 2.25 11 2.25C9.1435 2.25 7.36302 3.07969 6.05027 4.55653C4.73751 6.03338 4.00001 8.03642 4.00001 10.125V25.875C3.99713 27.4801 4.43117 29.0477 5.24378 30.3671C6.05638 31.6864 7.20858 32.6942 8.54544 33.2549C9.88231 33.8157 11.3397 33.9025 12.7218 33.5037C14.1038 33.1049 15.3441 32.2396 16.276 31.0241C17.1969 32.0877 18.3374 32.8783 19.5959 33.3255C20.8543 33.7727 22.1916 33.8625 23.4884 33.587C24.7853 33.3115 26.0013 32.6792 27.0282 31.7465C28.055 30.8138 28.8607 29.6097 29.3734 28.2416C29.8861 26.8735 30.0898 25.384 29.9665 23.9058C29.8431 22.4275 29.3965 21.0066 28.6664 19.7698C27.9364 18.5329 26.9456 17.5186 25.7824 16.8172C24.6192 16.1158 23.3198 15.7492 22 15.75V15.75ZM11 4.5C12.3256 4.50179 13.5965 5.09499 14.5338 6.1495C15.4711 7.204 15.9984 8.63371 16 10.125V16.875H6.00001V10.125C6.0016 8.63371 6.5289 7.204 7.46623 6.1495C8.40357 5.09499 9.67442 4.50179 11 4.5V4.5ZM11 31.5C9.67442 31.4982 8.40357 30.905 7.46623 29.8505C6.5289 28.796 6.0016 27.3663 6.00001 25.875V19.125H15.765C14.761 20.5243 14.155 22.2313 14.0259 24.0237C13.8967 25.816 14.2505 27.6106 15.041 29.1735C14.5775 29.8915 13.97 30.4763 13.2679 30.8806C12.5658 31.2848 11.7888 31.497 11 31.5V31.5ZM22 31.5C20.8133 31.5 19.6533 31.1041 18.6666 30.3624C17.6799 29.6207 16.9109 28.5665 16.4567 27.3331C16.0026 26.0997 15.8838 24.7425 16.1153 23.4331C16.3468 22.1238 16.9183 20.921 17.7574 19.977C18.5965 19.033 19.6656 18.3901 20.8295 18.1297C21.9934 17.8692 23.1998 18.0029 24.2961 18.5138C25.3925 19.0247 26.3295 19.8899 26.9888 20.9999C27.6481 22.1099 28 23.415 28 24.75C27.9982 26.5396 27.3654 28.2553 26.2406 29.5207C25.1158 30.7861 23.5907 31.4979 22 31.5V31.5Z" fill="#1A1B41"/>
<path d="M25 23.625H23V21.375H21V23.625H19V25.875H21V28.125H23V25.875H25V23.625Z" fill="#1A1B41"/>
</svg>
