<svg width="32" height="32" viewBox="0 0 32 32" fill="none" xmlns="http://www.w3.org/2000/svg">
<path d="M14.0667 3.37597C14.6077 2.92 15.2925 2.66992 16 2.66992C16.7075 2.66992 17.3923 2.92 17.9333 3.37597L26.9333 10.9653C27.6093 11.536 28 12.3746 28 13.2586V26.3293C28 26.9481 27.7542 27.5416 27.3166 27.9792C26.879 28.4168 26.2855 28.6626 25.6667 28.6626H21C20.3812 28.6626 19.7877 28.4168 19.3501 27.9792C18.9125 27.5416 18.6667 26.9481 18.6667 26.3293V18.996C18.6667 18.9076 18.6315 18.8228 18.569 18.7603C18.5065 18.6978 18.4217 18.6626 18.3333 18.6626H13.6667C13.5783 18.6626 13.4935 18.6978 13.431 18.7603C13.3685 18.8228 13.3333 18.9076 13.3333 18.996V26.3293C13.3333 26.9481 13.0875 27.5416 12.6499 27.9792C12.2123 28.4168 11.6188 28.6626 11 28.6626H6.33333C6.02692 28.6626 5.7235 28.6023 5.44041 28.485C5.15731 28.3678 4.90009 28.1959 4.68342 27.9792C4.46675 27.7625 4.29488 27.5053 4.17761 27.2222C4.06035 26.9391 4 26.6357 4 26.3293V13.2586C4 12.3746 4.39067 11.536 5.06667 10.9653L14.0667 3.37597ZM16.644 4.9053C16.4637 4.75355 16.2356 4.67033 16 4.67033C15.7644 4.67033 15.5363 4.75355 15.356 4.9053L6.356 12.4933C6.24463 12.5871 6.15506 12.704 6.09357 12.836C6.03208 12.9679 6.00015 13.1117 6 13.2573V26.328C6 26.512 6.14933 26.6613 6.33333 26.6613H11C11.0884 26.6613 11.1732 26.6262 11.2357 26.5637C11.2982 26.5012 11.3333 26.4164 11.3333 26.328V18.9946C11.3333 17.7053 12.3787 16.6613 13.6667 16.6613H18.3333C19.6213 16.6613 20.6667 17.7053 20.6667 18.9946V26.328C20.6667 26.512 20.816 26.6613 21 26.6613H25.6667C25.7551 26.6613 25.8399 26.6262 25.9024 26.5637C25.9649 26.5012 26 26.4164 26 26.328V13.2586C25.9999 13.1131 25.9679 12.9693 25.9064 12.8373C25.8449 12.7053 25.7554 12.5884 25.644 12.4946L16.644 4.9053Z" fill="#1A1B41"/>
</svg>
