<svg width="27" height="32" viewBox="0 0 27 32" fill="none" xmlns="http://www.w3.org/2000/svg">
<path d="M18 13.75C16.5943 13.7506 15.214 14.1711 14 14.9684V8.125C14 6.03642 13.2625 4.03338 11.9498 2.55653C10.637 1.07969 8.85653 0.25 7.00001 0.25C5.1435 0.25 3.36302 1.07969 2.05027 2.55653C0.737512 4.03338 1.42888e-05 6.03642 1.42611e-05 8.125V23.875C-0.00286789 25.4801 0.431174 27.0477 1.24378 28.3671C2.05638 29.6864 3.20858 30.6942 4.54544 31.2549C5.88231 31.8157 7.33974 31.9025 8.72176 31.5037C10.1038 31.1049 11.3441 30.2396 12.276 29.0241C13.1969 30.0877 14.3374 30.8783 15.5959 31.3255C16.8543 31.7727 18.1916 31.8625 19.4884 31.587C20.7853 31.3115 22.0013 30.6792 23.0282 29.7465C24.055 28.8138 24.8607 27.6097 25.3734 26.2416C25.8861 24.8735 26.0898 23.384 25.9665 21.9058C25.8431 20.4275 25.3965 19.0066 24.6664 17.7698C23.9364 16.5329 22.9456 15.5186 21.7824 14.8172C20.6192 14.1158 19.3198 13.7492 18 13.75ZM7.00001 2.5C8.32561 2.50179 9.59646 3.09499 10.5338 4.1495C11.4711 5.204 11.9984 6.63371 12 8.125V14.875H2.00001V8.125C2.0016 6.63371 2.5289 5.204 3.46623 4.1495C4.40357 3.09499 5.67442 2.50179 7.00001 2.5ZM7.00001 29.5C5.67442 29.4982 4.40357 28.905 3.46623 27.8505C2.5289 26.796 2.0016 25.3663 2.00001 23.875V17.125H11.765C10.761 18.5243 10.155 20.2313 10.0259 22.0237C9.89671 23.816 10.2505 25.6106 11.041 27.1735C10.5775 27.8915 9.97003 28.4763 9.26789 28.8806C8.56575 29.2848 7.78875 29.497 7.00001 29.5ZM18 29.5C16.8133 29.5 15.6533 29.1041 14.6666 28.3624C13.6799 27.6207 12.9109 26.5665 12.4567 25.3331C12.0026 24.0997 11.8838 22.7425 12.1153 21.4331C12.3468 20.1238 12.9183 18.921 13.7574 17.977C14.5965 17.033 15.6656 16.3901 16.8295 16.1297C17.9934 15.8692 19.1998 16.0029 20.2961 16.5138C21.3925 17.0247 22.3295 17.8899 22.9888 18.9999C23.6481 20.1099 24 21.415 24 22.75C23.9982 24.5396 23.3654 26.2553 22.2406 27.5207C21.1158 28.7861 19.5907 29.4979 18 29.5Z" fill="#959595"/>
</svg>
