<svg width="361" height="146" viewBox="0 0 361 146" fill="none" xmlns="http://www.w3.org/2000/svg">
<g filter="url(#filter0_d_168_6765)">
<path d="M25 21H336V105C336 111.627 330.627 117 324 117H37C30.3726 117 25 111.627 25 105V21Z" fill="white"/>
<path d="M94.375 58H88.6387V57.0215L91.4805 53.9219C91.8906 53.4648 92.1816 53.084 92.3535 52.7793C92.5293 52.4707 92.6172 52.1621 92.6172 51.8535C92.6172 51.4473 92.502 51.1191 92.2715 50.8691C92.0449 50.6191 91.7383 50.4941 91.3516 50.4941C90.8906 50.4941 90.5332 50.6348 90.2793 50.916C90.0254 51.1973 89.8984 51.582 89.8984 52.0703H88.4746C88.4746 51.5508 88.5918 51.084 88.8262 50.6699C89.0645 50.252 89.4023 49.9277 89.8398 49.6973C90.2812 49.4668 90.7891 49.3516 91.3633 49.3516C92.1914 49.3516 92.8438 49.5605 93.3203 49.9785C93.8008 50.3926 94.041 50.9668 94.041 51.7012C94.041 52.127 93.9199 52.5742 93.6777 53.043C93.4395 53.5078 93.0469 54.0371 92.5 54.6309L90.4141 56.8633H94.375V58ZM99.3145 58H97.8965V51.1504L95.8047 51.8652V50.6641L99.1328 49.4395H99.3145V58ZM105.496 58V49.4688H108.016C108.77 49.4688 109.438 49.6367 110.02 49.9727C110.605 50.3086 111.059 50.7852 111.379 51.4023C111.699 52.0195 111.859 52.7266 111.859 53.5234V53.9512C111.859 54.7598 111.697 55.4707 111.373 56.084C111.053 56.6973 110.594 57.1699 109.996 57.502C109.402 57.834 108.721 58 107.951 58H105.496ZM106.979 50.6641V56.8164H107.945C108.723 56.8164 109.318 56.5742 109.732 56.0898C110.15 55.6016 110.363 54.9023 110.371 53.9922V53.5176C110.371 52.5918 110.17 51.8848 109.768 51.3965C109.365 50.9082 108.781 50.6641 108.016 50.6641H106.979ZM116.986 58C116.924 57.8789 116.869 57.6816 116.822 57.4082C116.369 57.8809 115.814 58.1172 115.158 58.1172C114.521 58.1172 114.002 57.9355 113.6 57.5723C113.197 57.209 112.996 56.7598 112.996 56.2246C112.996 55.5488 113.246 55.0312 113.746 54.6719C114.25 54.3086 114.969 54.127 115.902 54.127H116.775V53.7109C116.775 53.3828 116.684 53.1211 116.5 52.9258C116.316 52.7266 116.037 52.627 115.662 52.627C115.338 52.627 115.072 52.709 114.865 52.873C114.658 53.0332 114.555 53.2383 114.555 53.4883H113.131C113.131 53.1406 113.246 52.8164 113.477 52.5156C113.707 52.2109 114.02 51.9727 114.414 51.8008C114.812 51.6289 115.256 51.543 115.744 51.543C116.486 51.543 117.078 51.7305 117.52 52.1055C117.961 52.4766 118.188 53 118.199 53.6758V56.5352C118.199 57.1055 118.279 57.5605 118.439 57.9004V58H116.986ZM115.422 56.9746C115.703 56.9746 115.967 56.9062 116.213 56.7695C116.463 56.6328 116.65 56.4492 116.775 56.2188V55.0234H116.008C115.48 55.0234 115.084 55.1152 114.818 55.2988C114.553 55.4824 114.42 55.7422 114.42 56.0781C114.42 56.3516 114.51 56.5703 114.689 56.7344C114.873 56.8945 115.117 56.9746 115.422 56.9746ZM121.814 55.9609L123.104 51.6602H124.621L122.102 58.9609C121.715 60.0273 121.059 60.5605 120.133 60.5605C119.926 60.5605 119.697 60.5254 119.447 60.4551V59.3535L119.717 59.3711C120.076 59.3711 120.346 59.3047 120.525 59.1719C120.709 59.043 120.854 58.8242 120.959 58.5156L121.164 57.9707L118.938 51.6602H120.473L121.814 55.9609ZM131.225 58.1172C130.322 58.1172 129.59 57.834 129.027 57.2676C128.469 56.6973 128.189 55.9395 128.189 54.9941V54.8184C128.189 54.1855 128.311 53.6211 128.553 53.125C128.799 52.625 129.143 52.2363 129.584 51.959C130.025 51.6816 130.518 51.543 131.061 51.543C131.924 51.543 132.59 51.8184 133.059 52.3691C133.531 52.9199 133.768 53.6992 133.768 54.707V55.2812H129.625C129.668 55.8047 129.842 56.2188 130.146 56.5234C130.455 56.8281 130.842 56.9805 131.307 56.9805C131.959 56.9805 132.49 56.7168 132.9 56.1895L133.668 56.9219C133.414 57.3008 133.074 57.5957 132.648 57.8066C132.227 58.0137 131.752 58.1172 131.225 58.1172ZM131.055 52.6855C130.664 52.6855 130.348 52.8223 130.105 53.0957C129.867 53.3691 129.715 53.75 129.648 54.2383H132.361V54.1328C132.33 53.6562 132.203 53.2969 131.98 53.0547C131.758 52.8086 131.449 52.6855 131.055 52.6855ZM138.666 58C138.604 57.8789 138.549 57.6816 138.502 57.4082C138.049 57.8809 137.494 58.1172 136.838 58.1172C136.201 58.1172 135.682 57.9355 135.279 57.5723C134.877 57.209 134.676 56.7598 134.676 56.2246C134.676 55.5488 134.926 55.0312 135.426 54.6719C135.93 54.3086 136.648 54.127 137.582 54.127H138.455V53.7109C138.455 53.3828 138.363 53.1211 138.18 52.9258C137.996 52.7266 137.717 52.627 137.342 52.627C137.018 52.627 136.752 52.709 136.545 52.873C136.338 53.0332 136.234 53.2383 136.234 53.4883H134.811C134.811 53.1406 134.926 52.8164 135.156 52.5156C135.387 52.2109 135.699 51.9727 136.094 51.8008C136.492 51.6289 136.936 51.543 137.424 51.543C138.166 51.543 138.758 51.7305 139.199 52.1055C139.641 52.4766 139.867 53 139.879 53.6758V56.5352C139.879 57.1055 139.959 57.5605 140.119 57.9004V58H138.666ZM137.102 56.9746C137.383 56.9746 137.646 56.9062 137.893 56.7695C138.143 56.6328 138.33 56.4492 138.455 56.2188V55.0234H137.688C137.16 55.0234 136.764 55.1152 136.498 55.2988C136.232 55.4824 136.1 55.7422 136.1 56.0781C136.1 56.3516 136.189 56.5703 136.369 56.7344C136.553 56.8945 136.797 56.9746 137.102 56.9746ZM143.154 50.1191V51.6602H144.273V52.7148H143.154V56.2539C143.154 56.4961 143.201 56.6719 143.295 56.7812C143.393 56.8867 143.564 56.9395 143.811 56.9395C143.975 56.9395 144.141 56.9199 144.309 56.8809V57.9824C143.984 58.0723 143.672 58.1172 143.371 58.1172C142.277 58.1172 141.73 57.5137 141.73 56.3066V52.7148H140.688V51.6602H141.73V50.1191H143.154ZM150.959 56.9805C151.314 56.9805 151.609 56.877 151.844 56.6699C152.078 56.4629 152.203 56.207 152.219 55.9023H153.561C153.545 56.2969 153.422 56.666 153.191 57.0098C152.961 57.3496 152.648 57.6191 152.254 57.8184C151.859 58.0176 151.434 58.1172 150.977 58.1172C150.09 58.1172 149.387 57.8301 148.867 57.2559C148.348 56.6816 148.088 55.8887 148.088 54.877V54.7305C148.088 53.7656 148.346 52.9941 148.861 52.416C149.377 51.834 150.08 51.543 150.971 51.543C151.725 51.543 152.338 51.7637 152.811 52.2051C153.287 52.6426 153.537 53.2188 153.561 53.9336H152.219C152.203 53.5703 152.078 53.2715 151.844 53.0371C151.613 52.8027 151.318 52.6855 150.959 52.6855C150.498 52.6855 150.143 52.8535 149.893 53.1895C149.643 53.5215 149.516 54.0273 149.512 54.707V54.9355C149.512 55.623 149.635 56.1367 149.881 56.4766C150.131 56.8125 150.49 56.9805 150.959 56.9805ZM156.15 58H154.727V49H156.15V58ZM160.498 58.1172C159.596 58.1172 158.863 57.834 158.301 57.2676C157.742 56.6973 157.463 55.9395 157.463 54.9941V54.8184C157.463 54.1855 157.584 53.6211 157.826 53.125C158.072 52.625 158.416 52.2363 158.857 51.959C159.299 51.6816 159.791 51.543 160.334 51.543C161.197 51.543 161.863 51.8184 162.332 52.3691C162.805 52.9199 163.041 53.6992 163.041 54.707V55.2812H158.898C158.941 55.8047 159.115 56.2188 159.42 56.5234C159.729 56.8281 160.115 56.9805 160.58 56.9805C161.232 56.9805 161.764 56.7168 162.174 56.1895L162.941 56.9219C162.688 57.3008 162.348 57.5957 161.922 57.8066C161.5 58.0137 161.025 58.1172 160.498 58.1172ZM160.328 52.6855C159.938 52.6855 159.621 52.8223 159.379 53.0957C159.141 53.3691 158.988 53.75 158.922 54.2383H161.635V54.1328C161.604 53.6562 161.477 53.2969 161.254 53.0547C161.031 52.8086 160.723 52.6855 160.328 52.6855ZM167.939 58C167.877 57.8789 167.822 57.6816 167.775 57.4082C167.322 57.8809 166.768 58.1172 166.111 58.1172C165.475 58.1172 164.955 57.9355 164.553 57.5723C164.15 57.209 163.949 56.7598 163.949 56.2246C163.949 55.5488 164.199 55.0312 164.699 54.6719C165.203 54.3086 165.922 54.127 166.855 54.127H167.729V53.7109C167.729 53.3828 167.637 53.1211 167.453 52.9258C167.27 52.7266 166.99 52.627 166.615 52.627C166.291 52.627 166.025 52.709 165.818 52.873C165.611 53.0332 165.508 53.2383 165.508 53.4883H164.084C164.084 53.1406 164.199 52.8164 164.43 52.5156C164.66 52.2109 164.973 51.9727 165.367 51.8008C165.766 51.6289 166.209 51.543 166.697 51.543C167.439 51.543 168.031 51.7305 168.473 52.1055C168.914 52.4766 169.141 53 169.152 53.6758V56.5352C169.152 57.1055 169.232 57.5605 169.393 57.9004V58H167.939ZM166.375 56.9746C166.656 56.9746 166.92 56.9062 167.166 56.7695C167.416 56.6328 167.604 56.4492 167.729 56.2188V55.0234H166.961C166.434 55.0234 166.037 55.1152 165.771 55.2988C165.506 55.4824 165.373 55.7422 165.373 56.0781C165.373 56.3516 165.463 56.5703 165.643 56.7344C165.826 56.8945 166.07 56.9746 166.375 56.9746ZM171.965 51.6602L172.006 52.3926C172.475 51.8262 173.09 51.543 173.852 51.543C175.172 51.543 175.844 52.2988 175.867 53.8105V58H174.443V53.8926C174.443 53.4902 174.355 53.1934 174.18 53.002C174.008 52.8066 173.725 52.709 173.33 52.709C172.756 52.709 172.328 52.9688 172.047 53.4883V58H170.623V51.6602H171.965ZM91.334 76.9805C91.6895 76.9805 91.9844 76.877 92.2188 76.6699C92.4531 76.4629 92.5781 76.207 92.5938 75.9023H93.9355C93.9199 76.2969 93.7969 76.666 93.5664 77.0098C93.3359 77.3496 93.0234 77.6191 92.6289 77.8184C92.2344 78.0176 91.8086 78.1172 91.3516 78.1172C90.4648 78.1172 89.7617 77.8301 89.2422 77.2559C88.7227 76.6816 88.4629 75.8887 88.4629 74.877V74.7305C88.4629 73.7656 88.7207 72.9941 89.2363 72.416C89.752 71.834 90.4551 71.543 91.3457 71.543C92.0996 71.543 92.7129 71.7637 93.1855 72.2051C93.6621 72.6426 93.9121 73.2188 93.9355 73.9336H92.5938C92.5781 73.5703 92.4531 73.2715 92.2188 73.0371C91.9883 72.8027 91.6934 72.6855 91.334 72.6855C90.873 72.6855 90.5176 72.8535 90.2676 73.1895C90.0176 73.5215 89.8906 74.0273 89.8867 74.707V74.9355C89.8867 75.623 90.0098 76.1367 90.2559 76.4766C90.5059 76.8125 90.8652 76.9805 91.334 76.9805ZM96.4141 72.3516C96.8789 71.8125 97.4668 71.543 98.1777 71.543C99.5293 71.543 100.215 72.3145 100.234 73.8574V78H98.8105V73.9102C98.8105 73.4727 98.7148 73.1641 98.5234 72.9844C98.3359 72.8008 98.0586 72.709 97.6914 72.709C97.1211 72.709 96.6953 72.9629 96.4141 73.4707V78H94.9902V69H96.4141V72.3516ZM105.467 78C105.404 77.8789 105.35 77.6816 105.303 77.4082C104.85 77.8809 104.295 78.1172 103.639 78.1172C103.002 78.1172 102.482 77.9355 102.08 77.5723C101.678 77.209 101.477 76.7598 101.477 76.2246C101.477 75.5488 101.727 75.0312 102.227 74.6719C102.73 74.3086 103.449 74.127 104.383 74.127H105.256V73.7109C105.256 73.3828 105.164 73.1211 104.98 72.9258C104.797 72.7266 104.518 72.627 104.143 72.627C103.818 72.627 103.553 72.709 103.346 72.873C103.139 73.0332 103.035 73.2383 103.035 73.4883H101.611C101.611 73.1406 101.727 72.8164 101.957 72.5156C102.188 72.2109 102.5 71.9727 102.895 71.8008C103.293 71.6289 103.736 71.543 104.225 71.543C104.967 71.543 105.559 71.7305 106 72.1055C106.441 72.4766 106.668 73 106.68 73.6758V76.5352C106.68 77.1055 106.76 77.5605 106.92 77.9004V78H105.467ZM103.902 76.9746C104.184 76.9746 104.447 76.9062 104.693 76.7695C104.943 76.6328 105.131 76.4492 105.256 76.2188V75.0234H104.488C103.961 75.0234 103.564 75.1152 103.299 75.2988C103.033 75.4824 102.9 75.7422 102.9 76.0781C102.9 76.3516 102.99 76.5703 103.17 76.7344C103.354 76.8945 103.598 76.9746 103.902 76.9746ZM109.686 78H108.262V69H109.686V78ZM112.756 78H111.332V69H112.756V78ZM117.104 78.1172C116.201 78.1172 115.469 77.834 114.906 77.2676C114.348 76.6973 114.068 75.9395 114.068 74.9941V74.8184C114.068 74.1855 114.189 73.6211 114.432 73.125C114.678 72.625 115.021 72.2363 115.463 71.959C115.904 71.6816 116.396 71.543 116.939 71.543C117.803 71.543 118.469 71.8184 118.938 72.3691C119.41 72.9199 119.646 73.6992 119.646 74.707V75.2812H115.504C115.547 75.8047 115.721 76.2188 116.025 76.5234C116.334 76.8281 116.721 76.9805 117.186 76.9805C117.838 76.9805 118.369 76.7168 118.779 76.1895L119.547 76.9219C119.293 77.3008 118.953 77.5957 118.527 77.8066C118.105 78.0137 117.631 78.1172 117.104 78.1172ZM116.934 72.6855C116.543 72.6855 116.227 72.8223 115.984 73.0957C115.746 73.3691 115.594 73.75 115.527 74.2383H118.24V74.1328C118.209 73.6562 118.082 73.2969 117.859 73.0547C117.637 72.8086 117.328 72.6855 116.934 72.6855ZM122.078 71.6602L122.119 72.3926C122.588 71.8262 123.203 71.543 123.965 71.543C125.285 71.543 125.957 72.2988 125.98 73.8105V78H124.557V73.8926C124.557 73.4902 124.469 73.1934 124.293 73.002C124.121 72.8066 123.838 72.709 123.443 72.709C122.869 72.709 122.441 72.9688 122.16 73.4883V78H120.736V71.6602H122.078ZM127.188 74.7832C127.188 73.7988 127.418 73.0137 127.879 72.4277C128.344 71.8379 128.959 71.543 129.725 71.543C130.447 71.543 131.016 71.7949 131.43 72.2988L131.494 71.6602H132.777V77.8066C132.777 78.6387 132.518 79.2949 131.998 79.7754C131.482 80.2559 130.785 80.4961 129.906 80.4961C129.441 80.4961 128.986 80.3984 128.541 80.2031C128.1 80.0117 127.764 79.7598 127.533 79.4473L128.207 78.5918C128.645 79.1113 129.184 79.3711 129.824 79.3711C130.297 79.3711 130.67 79.2422 130.943 78.9844C131.217 78.7305 131.354 78.3555 131.354 77.8594V77.4316C130.943 77.8887 130.396 78.1172 129.713 78.1172C128.971 78.1172 128.363 77.8223 127.891 77.2324C127.422 76.6426 127.188 75.8262 127.188 74.7832ZM128.605 74.9062C128.605 75.543 128.734 76.0449 128.992 76.4121C129.254 76.7754 129.615 76.957 130.076 76.957C130.65 76.957 131.076 76.7109 131.354 76.2188V73.4297C131.084 72.9492 130.662 72.709 130.088 72.709C129.619 72.709 129.254 72.8945 128.992 73.2656C128.734 73.6367 128.605 74.1836 128.605 74.9062ZM137.037 78.1172C136.135 78.1172 135.402 77.834 134.84 77.2676C134.281 76.6973 134.002 75.9395 134.002 74.9941V74.8184C134.002 74.1855 134.123 73.6211 134.365 73.125C134.611 72.625 134.955 72.2363 135.396 71.959C135.838 71.6816 136.33 71.543 136.873 71.543C137.736 71.543 138.402 71.8184 138.871 72.3691C139.344 72.9199 139.58 73.6992 139.58 74.707V75.2812H135.438C135.48 75.8047 135.654 76.2188 135.959 76.5234C136.268 76.8281 136.654 76.9805 137.119 76.9805C137.771 76.9805 138.303 76.7168 138.713 76.1895L139.48 76.9219C139.227 77.3008 138.887 77.5957 138.461 77.8066C138.039 78.0137 137.564 78.1172 137.037 78.1172ZM136.867 72.6855C136.477 72.6855 136.16 72.8223 135.918 73.0957C135.68 73.3691 135.527 73.75 135.461 74.2383H138.174V74.1328C138.143 73.6562 138.016 73.2969 137.793 73.0547C137.57 72.8086 137.262 72.6855 136.867 72.6855Z" fill="#373759"/>
<path d="M54.9151 60.1666L54.3318 54.3333H62.6651V47.6666H65.9984V54.3333H74.3318L72.0318 77.3166L54.9151 60.1666ZM37.6651 81V82.6666C37.6651 83.5833 38.4151 84.3333 39.3318 84.3333H60.9984C61.9151 84.3333 62.6651 83.5833 62.6651 82.6666V81H37.6651ZM72.4984 82.5L39.4984 49.5L37.1484 51.8333L46.6484 61.35C41.4651 62.45 37.6651 66 37.6651 71H56.2818L59.6151 74.3333H37.6651V77.6666H62.6651V77.3833L70.1651 84.8666L72.4984 82.5Z" fill="#48BDFF"/>
<path d="M247 65C247 62.7909 248.791 61 251 61H324C326.209 61 328 62.7909 328 65V79C328 81.2091 326.209 83 324 83H251C248.791 83 247 81.2091 247 79V65Z" fill="#BD00FD"/>
<path d="M262.175 69.3125H263.542V73.2148C263.542 73.5768 263.457 73.8997 263.288 74.1836C263.121 74.4674 262.887 74.6875 262.585 74.8438C262.286 75 261.951 75.0781 261.581 75.0781C260.961 75.0781 260.48 74.9219 260.136 74.6094C259.792 74.2969 259.62 73.8542 259.62 73.2812H260.995C260.995 73.5417 261.039 73.7305 261.128 73.8477C261.219 73.9648 261.37 74.0234 261.581 74.0234C261.771 74.0234 261.917 73.9531 262.019 73.8125C262.123 73.6693 262.175 73.4701 262.175 73.2148V69.3125ZM264.343 72.8477C264.343 72.4258 264.425 72.0508 264.589 71.7227C264.753 71.3919 264.988 71.138 265.296 70.9609C265.603 70.7839 265.964 70.6953 266.378 70.6953C267.011 70.6953 267.509 70.8919 267.874 71.2852C268.238 71.6758 268.421 72.2083 268.421 72.8828V72.9297C268.421 73.5885 268.237 74.112 267.87 74.5C267.505 74.8854 267.011 75.0781 266.386 75.0781C265.784 75.0781 265.301 74.8984 264.936 74.5391C264.572 74.1771 264.375 73.6875 264.347 73.0703L264.343 72.8477ZM265.659 72.9297C265.659 73.3203 265.72 73.6068 265.843 73.7891C265.965 73.9714 266.146 74.0625 266.386 74.0625C266.854 74.0625 267.094 73.7018 267.104 72.9805V72.8477C267.104 72.0898 266.862 71.7109 266.378 71.7109C265.938 71.7109 265.699 72.0378 265.663 72.6914L265.659 72.9297ZM270.55 75H269.229V70.7734H270.55V75ZM269.151 69.6836C269.151 69.4961 269.219 69.3424 269.354 69.2227C269.49 69.1029 269.665 69.043 269.882 69.043C270.098 69.043 270.273 69.1029 270.409 69.2227C270.544 69.3424 270.612 69.4961 270.612 69.6836C270.612 69.8711 270.544 70.0247 270.409 70.1445C270.273 70.2643 270.098 70.3242 269.882 70.3242C269.665 70.3242 269.49 70.2643 269.354 70.1445C269.219 70.0247 269.151 69.8711 269.151 69.6836ZM272.733 70.7734L272.776 71.2695C273.068 70.8867 273.47 70.6953 273.983 70.6953C274.423 70.6953 274.751 70.8268 274.967 71.0898C275.186 71.3529 275.299 71.7487 275.307 72.2773V75H273.987V72.332C273.987 72.1185 273.944 71.9622 273.858 71.8633C273.772 71.7617 273.616 71.7109 273.389 71.7109C273.131 71.7109 272.94 71.8125 272.815 72.0156V75H271.499V70.7734H272.733ZM283.014 73.0742C282.996 73.4701 282.889 73.8203 282.694 74.125C282.498 74.4271 282.224 74.6615 281.869 74.8281C281.518 74.9948 281.115 75.0781 280.662 75.0781C279.915 75.0781 279.326 74.8346 278.897 74.3477C278.467 73.8607 278.252 73.1732 278.252 72.2852V72.0039C278.252 71.4466 278.349 70.9596 278.541 70.543C278.737 70.1237 279.017 69.8008 279.381 69.5742C279.746 69.3451 280.168 69.2305 280.647 69.2305C281.337 69.2305 281.892 69.4128 282.311 69.7773C282.73 70.1393 282.968 70.6393 283.026 71.2773H281.658C281.648 70.931 281.561 70.6823 281.397 70.5312C281.233 70.3802 280.983 70.3047 280.647 70.3047C280.306 70.3047 280.056 70.4323 279.897 70.6875C279.738 70.9427 279.655 71.3503 279.647 71.9102V72.3125C279.647 72.9193 279.722 73.3529 279.873 73.6133C280.027 73.8737 280.29 74.0039 280.662 74.0039C280.977 74.0039 281.218 73.9297 281.385 73.7812C281.552 73.6328 281.64 73.3971 281.651 73.0742H283.014ZM285.049 71.2266C285.33 70.8724 285.69 70.6953 286.127 70.6953C286.593 70.6953 286.945 70.8333 287.182 71.1094C287.419 71.3854 287.54 71.793 287.545 72.332V75H286.225V72.3633C286.225 72.1393 286.179 71.9753 286.088 71.8711C285.997 71.7643 285.842 71.7109 285.623 71.7109C285.352 71.7109 285.161 71.7969 285.049 71.9688V75H283.732V69H285.049V71.2266ZM290.818 75C290.771 74.9141 290.73 74.7878 290.693 74.6211C290.451 74.9258 290.113 75.0781 289.678 75.0781C289.279 75.0781 288.941 74.9583 288.662 74.7188C288.383 74.4766 288.244 74.1732 288.244 73.8086C288.244 73.3503 288.413 73.0039 288.752 72.7695C289.09 72.5352 289.583 72.418 290.228 72.418H290.635V72.1953C290.635 71.8073 290.467 71.6133 290.131 71.6133C289.818 71.6133 289.662 71.7669 289.662 72.0742H288.346C288.346 71.6654 288.519 71.3333 288.865 71.0781C289.214 70.8229 289.658 70.6953 290.197 70.6953C290.736 70.6953 291.162 70.8268 291.475 71.0898C291.787 71.3529 291.947 71.7135 291.955 72.1719V74.043C291.96 74.431 292.02 74.7279 292.135 74.9336V75H290.818ZM289.994 74.1406C290.158 74.1406 290.294 74.1055 290.4 74.0352C290.51 73.9648 290.588 73.8854 290.635 73.7969V73.1211H290.252C289.794 73.1211 289.564 73.3268 289.564 73.7383C289.564 73.8581 289.605 73.9557 289.685 74.0312C289.766 74.1042 289.869 74.1406 289.994 74.1406ZM294.236 75H292.916V69H294.236V75ZM296.599 75H295.279V69H296.599V75ZM299.619 75.0781C298.97 75.0781 298.445 74.8854 298.044 74.5C297.643 74.112 297.443 73.6081 297.443 72.9883V72.8789C297.443 72.4466 297.522 72.0651 297.681 71.7344C297.843 71.4036 298.077 71.1484 298.384 70.9688C298.692 70.7865 299.056 70.6953 299.478 70.6953C300.072 70.6953 300.54 70.8802 300.884 71.25C301.228 71.6172 301.4 72.1302 301.4 72.7891V73.3008H298.783C298.83 73.5378 298.932 73.724 299.091 73.8594C299.25 73.9948 299.456 74.0625 299.708 74.0625C300.125 74.0625 300.451 73.9167 300.685 73.625L301.287 74.3359C301.122 74.5625 300.889 74.7435 300.587 74.8789C300.288 75.0117 299.965 75.0781 299.619 75.0781ZM299.47 71.7109C299.085 71.7109 298.856 71.9661 298.783 72.4766H300.111V72.375C300.116 72.1641 300.063 72.0013 299.951 71.8867C299.839 71.7695 299.678 71.7109 299.47 71.7109ZM303.302 70.7734L303.345 71.2695C303.637 70.8867 304.039 70.6953 304.552 70.6953C304.992 70.6953 305.32 70.8268 305.536 71.0898C305.755 71.3529 305.868 71.7487 305.876 72.2773V75H304.556V72.332C304.556 72.1185 304.513 71.9622 304.427 71.8633C304.341 71.7617 304.185 71.7109 303.958 71.7109C303.7 71.7109 303.509 71.8125 303.384 72.0156V75H302.068V70.7734H303.302ZM306.614 72.8555C306.614 72.4284 306.685 72.0508 306.825 71.7227C306.966 71.3945 307.168 71.1419 307.431 70.9648C307.694 70.7852 308 70.6953 308.349 70.6953C308.789 70.6953 309.133 70.8438 309.38 71.1406L309.427 70.7734H310.622V74.8398C310.622 75.2122 310.535 75.5352 310.36 75.8086C310.189 76.0846 309.939 76.2956 309.61 76.4414C309.282 76.5898 308.902 76.6641 308.47 76.6641C308.16 76.6641 307.859 76.6055 307.567 76.4883C307.278 76.3711 307.057 76.2188 306.903 76.0312L307.454 75.2578C307.699 75.5469 308.022 75.6914 308.423 75.6914C309.006 75.6914 309.298 75.3919 309.298 74.793V74.6602C309.045 74.9388 308.726 75.0781 308.341 75.0781C307.825 75.0781 307.409 74.8815 307.091 74.4883C306.773 74.0924 306.614 73.5638 306.614 72.9023V72.8555ZM307.935 72.9375C307.935 73.2839 308 73.5586 308.13 73.7617C308.26 73.9622 308.442 74.0625 308.677 74.0625C308.961 74.0625 309.168 73.9674 309.298 73.7773V72C309.17 71.8073 308.966 71.7109 308.685 71.7109C308.45 71.7109 308.267 71.8164 308.134 72.0273C308.001 72.2357 307.935 72.5391 307.935 72.9375ZM313.575 75.0781C312.927 75.0781 312.402 74.8854 312.001 74.5C311.6 74.112 311.399 73.6081 311.399 72.9883V72.8789C311.399 72.4466 311.479 72.0651 311.638 71.7344C311.799 71.4036 312.033 71.1484 312.341 70.9688C312.648 70.7865 313.013 70.6953 313.435 70.6953C314.028 70.6953 314.497 70.8802 314.841 71.25C315.185 71.6172 315.356 72.1302 315.356 72.7891V73.3008H312.739C312.786 73.5378 312.889 73.724 313.048 73.8594C313.207 73.9948 313.412 74.0625 313.665 74.0625C314.082 74.0625 314.407 73.9167 314.642 73.625L315.243 74.3359C315.079 74.5625 314.846 74.7435 314.544 74.8789C314.244 75.0117 313.922 75.0781 313.575 75.0781ZM313.427 71.7109C313.041 71.7109 312.812 71.9661 312.739 72.4766H314.067V72.375C314.073 72.1641 314.019 72.0013 313.907 71.8867C313.795 71.7695 313.635 71.7109 313.427 71.7109Z" fill="white"/>
<path d="M261.66 39V33.3125H263.266C263.76 33.3125 264.198 33.4219 264.578 33.6406C264.958 33.8594 265.251 34.1706 265.457 34.5742C265.665 34.9779 265.771 35.4414 265.773 35.9648V36.3281C265.773 36.8646 265.669 37.3346 265.461 37.7383C265.255 38.1419 264.96 38.4518 264.574 38.668C264.191 38.8841 263.745 38.9948 263.234 39H261.66ZM262.41 33.9297V38.3867H263.199C263.777 38.3867 264.227 38.207 264.547 37.8477C264.87 37.4883 265.031 36.9766 265.031 36.3125V35.9805C265.031 35.3346 264.879 34.8333 264.574 34.4766C264.272 34.1172 263.842 33.9349 263.285 33.9297H262.41ZM269.406 39C269.365 38.9167 269.331 38.7682 269.305 38.5547C268.969 38.9036 268.568 39.0781 268.102 39.0781C267.685 39.0781 267.342 38.9609 267.074 38.7266C266.809 38.4896 266.676 38.1901 266.676 37.8281C266.676 37.388 266.842 37.0469 267.176 36.8047C267.512 36.5599 267.983 36.4375 268.59 36.4375H269.293V36.1055C269.293 35.8529 269.217 35.6523 269.066 35.5039C268.915 35.3529 268.693 35.2773 268.398 35.2773C268.141 35.2773 267.924 35.3424 267.75 35.4727C267.576 35.6029 267.488 35.7604 267.488 35.9453H266.762C266.762 35.7344 266.836 35.5312 266.984 35.3359C267.135 35.138 267.339 34.9818 267.594 34.8672C267.852 34.7526 268.134 34.6953 268.441 34.6953C268.928 34.6953 269.31 34.8177 269.586 35.0625C269.862 35.3047 270.005 35.6393 270.016 36.0664V38.0117C270.016 38.3997 270.065 38.7083 270.164 38.9375V39H269.406ZM268.207 38.4492C268.434 38.4492 268.648 38.3906 268.852 38.2734C269.055 38.1562 269.202 38.0039 269.293 37.8164V36.9492H268.727C267.841 36.9492 267.398 37.2083 267.398 37.7266C267.398 37.9531 267.474 38.1302 267.625 38.2578C267.776 38.3854 267.97 38.4492 268.207 38.4492ZM272.129 33.75V34.7734H272.918V35.332H272.129V37.9531C272.129 38.1224 272.164 38.25 272.234 38.3359C272.305 38.4193 272.424 38.4609 272.594 38.4609C272.677 38.4609 272.792 38.4453 272.938 38.4141V39C272.747 39.0521 272.562 39.0781 272.383 39.0781C272.06 39.0781 271.816 38.9805 271.652 38.7852C271.488 38.5898 271.406 38.3125 271.406 37.9531V35.332H270.637V34.7734H271.406V33.75H272.129ZM275.52 39.0781C274.947 39.0781 274.48 38.8906 274.121 38.5156C273.762 38.138 273.582 37.6341 273.582 37.0039V36.8711C273.582 36.4518 273.661 36.0781 273.82 35.75C273.982 35.4193 274.206 35.1615 274.492 34.9766C274.781 34.7891 275.094 34.6953 275.43 34.6953C275.979 34.6953 276.406 34.8763 276.711 35.2383C277.016 35.6003 277.168 36.1185 277.168 36.793V37.0938H274.305C274.315 37.5104 274.436 37.8477 274.668 38.1055C274.902 38.3607 275.199 38.4883 275.559 38.4883C275.814 38.4883 276.03 38.4362 276.207 38.332C276.384 38.2279 276.539 38.0898 276.672 37.918L277.113 38.2617C276.759 38.806 276.228 39.0781 275.52 39.0781ZM275.43 35.2891C275.138 35.2891 274.893 35.3958 274.695 35.6094C274.497 35.8203 274.375 36.1172 274.328 36.5H276.445V36.4453C276.424 36.0781 276.326 35.7943 276.148 35.5938C275.971 35.3906 275.732 35.2891 275.43 35.2891ZM281.496 36.8789H279.59V36.2891H281.496V36.8789ZM287.84 39H284.113V38.4805L286.082 36.293C286.374 35.9622 286.574 35.694 286.684 35.4883C286.796 35.2799 286.852 35.0651 286.852 34.8438C286.852 34.5469 286.762 34.3034 286.582 34.1133C286.402 33.9232 286.163 33.8281 285.863 33.8281C285.504 33.8281 285.224 33.931 285.023 34.1367C284.826 34.3398 284.727 34.6237 284.727 34.9883H284.004C284.004 34.4648 284.172 34.0417 284.508 33.7188C284.846 33.3958 285.298 33.2344 285.863 33.2344C286.392 33.2344 286.81 33.3737 287.117 33.6523C287.424 33.9284 287.578 34.2969 287.578 34.7578C287.578 35.3177 287.221 35.9844 286.508 36.7578L284.984 38.4102H287.84V39ZM291.656 37.0898H292.445V37.6797H291.656V39H290.93V37.6797H288.34V37.2539L290.887 33.3125H291.656V37.0898ZM289.16 37.0898H290.93V34.3008L290.844 34.457L289.16 37.0898ZM293.316 39.4883H292.695L295.07 33.3125H295.688L293.316 39.4883ZM299.961 36.5742C299.961 37.4206 299.816 38.0495 299.527 38.4609C299.238 38.8724 298.786 39.0781 298.172 39.0781C297.565 39.0781 297.116 38.8776 296.824 38.4766C296.533 38.0729 296.382 37.4714 296.371 36.6719V35.707C296.371 34.8711 296.516 34.25 296.805 33.8438C297.094 33.4375 297.547 33.2344 298.164 33.2344C298.776 33.2344 299.227 33.431 299.516 33.8242C299.805 34.2148 299.953 34.819 299.961 35.6367V36.5742ZM299.238 35.5859C299.238 34.974 299.152 34.5286 298.98 34.25C298.809 33.9688 298.536 33.8281 298.164 33.8281C297.794 33.8281 297.525 33.9674 297.355 34.2461C297.186 34.5247 297.099 34.9531 297.094 35.5312V36.6875C297.094 37.3021 297.182 37.7565 297.359 38.0508C297.539 38.3424 297.81 38.4883 298.172 38.4883C298.529 38.4883 298.793 38.3503 298.965 38.0742C299.139 37.7982 299.23 37.3633 299.238 36.7695V35.5859ZM304.336 34.7969C304.336 35.0807 304.26 35.3333 304.109 35.5547C303.961 35.776 303.759 35.9492 303.504 36.0742C303.801 36.2018 304.035 36.388 304.207 36.6328C304.382 36.8776 304.469 37.1549 304.469 37.4648C304.469 37.957 304.302 38.349 303.969 38.6406C303.638 38.9323 303.202 39.0781 302.66 39.0781C302.113 39.0781 301.674 38.9323 301.344 38.6406C301.016 38.3464 300.852 37.9544 300.852 37.4648C300.852 37.1576 300.935 36.8802 301.102 36.6328C301.271 36.3854 301.504 36.1979 301.801 36.0703C301.548 35.9453 301.349 35.7721 301.203 35.5508C301.057 35.3294 300.984 35.0781 300.984 34.7969C300.984 34.3177 301.138 33.9375 301.445 33.6562C301.753 33.375 302.158 33.2344 302.66 33.2344C303.16 33.2344 303.564 33.375 303.871 33.6562C304.181 33.9375 304.336 34.3177 304.336 34.7969ZM303.746 37.4492C303.746 37.1315 303.645 36.8724 303.441 36.6719C303.241 36.4714 302.978 36.3711 302.652 36.3711C302.327 36.3711 302.065 36.4701 301.867 36.668C301.672 36.8659 301.574 37.1263 301.574 37.4492C301.574 37.7721 301.669 38.026 301.859 38.2109C302.052 38.3958 302.319 38.4883 302.66 38.4883C302.999 38.4883 303.264 38.3958 303.457 38.2109C303.65 38.0234 303.746 37.7695 303.746 37.4492ZM302.66 33.8281C302.376 33.8281 302.146 33.9167 301.969 34.0938C301.794 34.2682 301.707 34.5065 301.707 34.8086C301.707 35.0977 301.793 35.332 301.965 35.5117C302.139 35.6888 302.371 35.7773 302.66 35.7773C302.949 35.7773 303.18 35.6888 303.352 35.5117C303.526 35.332 303.613 35.0977 303.613 34.8086C303.613 34.5195 303.523 34.2839 303.344 34.1016C303.164 33.9193 302.936 33.8281 302.66 33.8281ZM305.598 39.4883H304.977L307.352 33.3125H307.969L305.598 39.4883ZM312.402 39H308.676V38.4805L310.645 36.293C310.936 35.9622 311.137 35.694 311.246 35.4883C311.358 35.2799 311.414 35.0651 311.414 34.8438C311.414 34.5469 311.324 34.3034 311.145 34.1133C310.965 33.9232 310.725 33.8281 310.426 33.8281C310.066 33.8281 309.786 33.931 309.586 34.1367C309.388 34.3398 309.289 34.6237 309.289 34.9883H308.566C308.566 34.4648 308.734 34.0417 309.07 33.7188C309.409 33.3958 309.861 33.2344 310.426 33.2344C310.954 33.2344 311.372 33.3737 311.68 33.6523C311.987 33.9284 312.141 34.2969 312.141 34.7578C312.141 35.3177 311.784 35.9844 311.07 36.7578L309.547 38.4102H312.402V39ZM316.734 36.5742C316.734 37.4206 316.59 38.0495 316.301 38.4609C316.012 38.8724 315.56 39.0781 314.945 39.0781C314.339 39.0781 313.889 38.8776 313.598 38.4766C313.306 38.0729 313.155 37.4714 313.145 36.6719V35.707C313.145 34.8711 313.289 34.25 313.578 33.8438C313.867 33.4375 314.32 33.2344 314.938 33.2344C315.549 33.2344 316 33.431 316.289 33.8242C316.578 34.2148 316.727 34.819 316.734 35.6367V36.5742ZM316.012 35.5859C316.012 34.974 315.926 34.5286 315.754 34.25C315.582 33.9688 315.31 33.8281 314.938 33.8281C314.568 33.8281 314.298 33.9674 314.129 34.2461C313.96 34.5247 313.872 34.9531 313.867 35.5312V36.6875C313.867 37.3021 313.956 37.7565 314.133 38.0508C314.312 38.3424 314.583 38.4883 314.945 38.4883C315.302 38.4883 315.566 38.3503 315.738 38.0742C315.913 37.7982 316.004 37.3633 316.012 36.7695V35.5859ZM321.387 39H317.66V38.4805L319.629 36.293C319.921 35.9622 320.121 35.694 320.23 35.4883C320.342 35.2799 320.398 35.0651 320.398 34.8438C320.398 34.5469 320.309 34.3034 320.129 34.1133C319.949 33.9232 319.71 33.8281 319.41 33.8281C319.051 33.8281 318.771 33.931 318.57 34.1367C318.372 34.3398 318.273 34.6237 318.273 34.9883H317.551C317.551 34.4648 317.719 34.0417 318.055 33.7188C318.393 33.3958 318.845 33.2344 319.41 33.2344C319.939 33.2344 320.357 33.3737 320.664 33.6523C320.971 33.9284 321.125 34.2969 321.125 34.7578C321.125 35.3177 320.768 35.9844 320.055 36.7578L318.531 38.4102H321.387V39ZM324.527 39H323.801V34.1836L322.344 34.7188V34.0625L324.414 33.2852H324.527V39Z" fill="#1A1B41"/>
</g>
<defs>
<filter id="filter0_d_168_6765" x="0" y="0" width="361" height="146" filterUnits="userSpaceOnUse" color-interpolation-filters="sRGB">
<feFlood flood-opacity="0" result="BackgroundImageFix"/>
<feColorMatrix in="SourceAlpha" type="matrix" values="0 0 0 0 0 0 0 0 0 0 0 0 0 0 0 0 0 0 127 0" result="hardAlpha"/>
<feOffset dy="4"/>
<feGaussianBlur stdDeviation="12.5"/>
<feComposite in2="hardAlpha" operator="out"/>
<feColorMatrix type="matrix" values="0 0 0 0 0 0 0 0 0 0 0 0 0 0 0 0 0 0 0.08 0"/>
<feBlend mode="normal" in2="BackgroundImageFix" result="effect1_dropShadow_168_6765"/>
<feBlend mode="normal" in="SourceGraphic" in2="effect1_dropShadow_168_6765" result="shape"/>
</filter>
</defs>
</svg>
