<svg width="361" height="146" viewBox="0 0 361 146" fill="none" xmlns="http://www.w3.org/2000/svg">
<g filter="url(#filter0_d_168_6748)">
<path d="M25 21H336V105C336 111.627 330.627 117 324 117H37C30.3726 117 25 111.627 25 105V21Z" fill="white"/>
<path d="M88.8672 58V49.4688H91.791C92.7559 49.4688 93.4902 49.6621 93.9941 50.0488C94.498 50.4355 94.75 51.0117 94.75 51.7773C94.75 52.168 94.6445 52.5195 94.4336 52.832C94.2227 53.1445 93.9141 53.3867 93.5078 53.5586C93.9688 53.6836 94.3242 53.9199 94.5742 54.2676C94.8281 54.6113 94.9551 55.0254 94.9551 55.5098C94.9551 56.3105 94.6973 56.9258 94.1816 57.3555C93.6699 57.7852 92.9355 58 91.9785 58H88.8672ZM90.3496 54.1504V56.8164H91.9961C92.4609 56.8164 92.8242 56.7012 93.0859 56.4707C93.3477 56.2402 93.4785 55.9199 93.4785 55.5098C93.4785 54.623 93.0254 54.1699 92.1191 54.1504H90.3496ZM90.3496 53.0605H91.8027C92.2637 53.0605 92.623 52.957 92.8809 52.75C93.1426 52.5391 93.2734 52.2422 93.2734 51.8594C93.2734 51.4375 93.1523 51.1328 92.9102 50.9453C92.6719 50.7578 92.2988 50.6641 91.791 50.6641H90.3496V53.0605ZM100.141 57.3789C99.7227 57.8711 99.1289 58.1172 98.3594 58.1172C97.6719 58.1172 97.1504 57.916 96.7949 57.5137C96.4434 57.1113 96.2676 56.5293 96.2676 55.7676V51.6602H97.6914V55.75C97.6914 56.5547 98.0254 56.957 98.6934 56.957C99.3848 56.957 99.8516 56.709 100.094 56.2129V51.6602H101.518V58H100.176L100.141 57.3789ZM106.287 52.9609C106.1 52.9297 105.906 52.9141 105.707 52.9141C105.055 52.9141 104.615 53.1641 104.389 53.6641V58H102.965V51.6602H104.324L104.359 52.3691C104.703 51.8184 105.18 51.543 105.789 51.543C105.992 51.543 106.16 51.5703 106.293 51.625L106.287 52.9609ZM108.508 51.6602L108.549 52.3926C109.018 51.8262 109.633 51.543 110.395 51.543C111.715 51.543 112.387 52.2988 112.41 53.8105V58H110.986V53.8926C110.986 53.4902 110.898 53.1934 110.723 53.002C110.551 52.8066 110.268 52.709 109.873 52.709C109.299 52.709 108.871 52.9688 108.59 53.4883V58H107.166V51.6602H108.508ZM121.58 54.959H122.641V56.1016H121.58V58H120.156V56.1016H116.471L116.43 55.2344L120.109 49.4688H121.58V54.959ZM117.924 54.959H120.156V51.3965L120.051 51.584L117.924 54.959ZM129.145 54.4082C129.145 55.6348 128.914 56.5605 128.453 57.1855C127.996 57.8066 127.299 58.1172 126.361 58.1172C125.439 58.1172 124.744 57.8145 124.275 57.209C123.811 56.5996 123.572 55.6992 123.561 54.5078V53.0312C123.561 51.8047 123.789 50.8848 124.246 50.2715C124.707 49.6582 125.408 49.3516 126.35 49.3516C127.283 49.3516 127.979 49.6504 128.436 50.248C128.896 50.8457 129.133 51.7402 129.145 52.9316V54.4082ZM127.721 52.8145C127.721 52.0137 127.611 51.4277 127.393 51.0566C127.174 50.6816 126.826 50.4941 126.35 50.4941C125.885 50.4941 125.543 50.6719 125.324 51.0273C125.105 51.3789 124.99 51.9297 124.979 52.6797V54.6133C124.979 55.4102 125.09 56.0039 125.312 56.3945C125.535 56.7852 125.885 56.9805 126.361 56.9805C126.818 56.9805 127.156 56.8008 127.375 56.4414C127.594 56.0781 127.709 55.5117 127.721 54.7422V52.8145ZM135.965 54.4082C135.965 55.6348 135.734 56.5605 135.273 57.1855C134.816 57.8066 134.119 58.1172 133.182 58.1172C132.26 58.1172 131.564 57.8145 131.096 57.209C130.631 56.5996 130.393 55.6992 130.381 54.5078V53.0312C130.381 51.8047 130.609 50.8848 131.066 50.2715C131.527 49.6582 132.229 49.3516 133.17 49.3516C134.104 49.3516 134.799 49.6504 135.256 50.248C135.717 50.8457 135.953 51.7402 135.965 52.9316V54.4082ZM134.541 52.8145C134.541 52.0137 134.432 51.4277 134.213 51.0566C133.994 50.6816 133.646 50.4941 133.17 50.4941C132.705 50.4941 132.363 50.6719 132.145 51.0273C131.926 51.3789 131.811 51.9297 131.799 52.6797V54.6133C131.799 55.4102 131.91 56.0039 132.133 56.3945C132.355 56.7852 132.705 56.9805 133.182 56.9805C133.639 56.9805 133.977 56.8008 134.195 56.4414C134.414 56.0781 134.529 55.5117 134.541 54.7422V52.8145ZM142.908 56.9805C143.264 56.9805 143.559 56.877 143.793 56.6699C144.027 56.4629 144.152 56.207 144.168 55.9023H145.51C145.494 56.2969 145.371 56.666 145.141 57.0098C144.91 57.3496 144.598 57.6191 144.203 57.8184C143.809 58.0176 143.383 58.1172 142.926 58.1172C142.039 58.1172 141.336 57.8301 140.816 57.2559C140.297 56.6816 140.037 55.8887 140.037 54.877V54.7305C140.037 53.7656 140.295 52.9941 140.811 52.416C141.326 51.834 142.029 51.543 142.92 51.543C143.674 51.543 144.287 51.7637 144.76 52.2051C145.236 52.6426 145.486 53.2188 145.51 53.9336H144.168C144.152 53.5703 144.027 53.2715 143.793 53.0371C143.562 52.8027 143.268 52.6855 142.908 52.6855C142.447 52.6855 142.092 52.8535 141.842 53.1895C141.592 53.5215 141.465 54.0273 141.461 54.707V54.9355C141.461 55.623 141.584 56.1367 141.83 56.4766C142.08 56.8125 142.439 56.9805 142.908 56.9805ZM150.373 58C150.311 57.8789 150.256 57.6816 150.209 57.4082C149.756 57.8809 149.201 58.1172 148.545 58.1172C147.908 58.1172 147.389 57.9355 146.986 57.5723C146.584 57.209 146.383 56.7598 146.383 56.2246C146.383 55.5488 146.633 55.0312 147.133 54.6719C147.637 54.3086 148.355 54.127 149.289 54.127H150.162V53.7109C150.162 53.3828 150.07 53.1211 149.887 52.9258C149.703 52.7266 149.424 52.627 149.049 52.627C148.725 52.627 148.459 52.709 148.252 52.873C148.045 53.0332 147.941 53.2383 147.941 53.4883H146.518C146.518 53.1406 146.633 52.8164 146.863 52.5156C147.094 52.2109 147.406 51.9727 147.801 51.8008C148.199 51.6289 148.643 51.543 149.131 51.543C149.873 51.543 150.465 51.7305 150.906 52.1055C151.348 52.4766 151.574 53 151.586 53.6758V56.5352C151.586 57.1055 151.666 57.5605 151.826 57.9004V58H150.373ZM148.809 56.9746C149.09 56.9746 149.354 56.9062 149.6 56.7695C149.85 56.6328 150.037 56.4492 150.162 56.2188V55.0234H149.395C148.867 55.0234 148.471 55.1152 148.205 55.2988C147.939 55.4824 147.807 55.7422 147.807 56.0781C147.807 56.3516 147.896 56.5703 148.076 56.7344C148.26 56.8945 148.504 56.9746 148.809 56.9746ZM154.592 58H153.168V49H154.592V58ZM155.881 54.7715C155.881 54.1504 156.004 53.5918 156.25 53.0957C156.496 52.5957 156.842 52.2129 157.287 51.9473C157.732 51.6777 158.244 51.543 158.822 51.543C159.678 51.543 160.371 51.8184 160.902 52.3691C161.438 52.9199 161.727 53.6504 161.77 54.5605L161.775 54.8945C161.775 55.5195 161.654 56.0781 161.412 56.5703C161.174 57.0625 160.83 57.4434 160.381 57.7129C159.936 57.9824 159.42 58.1172 158.834 58.1172C157.939 58.1172 157.223 57.8203 156.684 57.2266C156.148 56.6289 155.881 55.834 155.881 54.8418V54.7715ZM157.305 54.8945C157.305 55.5469 157.439 56.0586 157.709 56.4297C157.979 56.7969 158.354 56.9805 158.834 56.9805C159.314 56.9805 159.688 56.793 159.953 56.418C160.223 56.043 160.357 55.4941 160.357 54.7715C160.357 54.1309 160.219 53.623 159.941 53.248C159.668 52.873 159.295 52.6855 158.822 52.6855C158.357 52.6855 157.988 52.8711 157.715 53.2422C157.441 53.6094 157.305 54.1602 157.305 54.8945ZM166.299 52.9609C166.111 52.9297 165.918 52.9141 165.719 52.9141C165.066 52.9141 164.627 53.1641 164.4 53.6641V58H162.977V51.6602H164.336L164.371 52.3691C164.715 51.8184 165.191 51.543 165.801 51.543C166.004 51.543 166.172 51.5703 166.305 51.625L166.299 52.9609ZM168.713 58H167.289V51.6602H168.713V58ZM167.201 50.0137C167.201 49.7949 167.27 49.6133 167.406 49.4688C167.547 49.3242 167.746 49.252 168.004 49.252C168.262 49.252 168.461 49.3242 168.602 49.4688C168.742 49.6133 168.812 49.7949 168.812 50.0137C168.812 50.2285 168.742 50.4082 168.602 50.5527C168.461 50.6934 168.262 50.7637 168.004 50.7637C167.746 50.7637 167.547 50.6934 167.406 50.5527C167.27 50.4082 167.201 50.2285 167.201 50.0137ZM173.061 58.1172C172.158 58.1172 171.426 57.834 170.863 57.2676C170.305 56.6973 170.025 55.9395 170.025 54.9941V54.8184C170.025 54.1855 170.146 53.6211 170.389 53.125C170.635 52.625 170.979 52.2363 171.42 51.959C171.861 51.6816 172.354 51.543 172.896 51.543C173.76 51.543 174.426 51.8184 174.895 52.3691C175.367 52.9199 175.604 53.6992 175.604 54.707V55.2812H171.461C171.504 55.8047 171.678 56.2188 171.982 56.5234C172.291 56.8281 172.678 56.9805 173.143 56.9805C173.795 56.9805 174.326 56.7168 174.736 56.1895L175.504 56.9219C175.25 57.3008 174.91 57.5957 174.484 57.8066C174.062 58.0137 173.588 58.1172 173.061 58.1172ZM172.891 52.6855C172.5 52.6855 172.184 52.8223 171.941 53.0957C171.703 53.3691 171.551 53.75 171.484 54.2383H174.197V54.1328C174.166 53.6562 174.039 53.2969 173.816 53.0547C173.594 52.8086 173.285 52.6855 172.891 52.6855ZM180.268 56.2773C180.268 56.0234 180.162 55.8301 179.951 55.6973C179.744 55.5645 179.398 55.4473 178.914 55.3457C178.43 55.2441 178.025 55.1152 177.701 54.959C176.99 54.6152 176.635 54.1172 176.635 53.4648C176.635 52.918 176.865 52.4609 177.326 52.0938C177.787 51.7266 178.373 51.543 179.084 51.543C179.842 51.543 180.453 51.7305 180.918 52.1055C181.387 52.4805 181.621 52.9668 181.621 53.5645H180.197C180.197 53.291 180.096 53.0645 179.893 52.8848C179.689 52.7012 179.42 52.6094 179.084 52.6094C178.771 52.6094 178.516 52.6816 178.316 52.8262C178.121 52.9707 178.023 53.1641 178.023 53.4062C178.023 53.625 178.115 53.7949 178.299 53.916C178.482 54.0371 178.854 54.1602 179.412 54.2852C179.971 54.4062 180.408 54.5527 180.725 54.7246C181.045 54.8926 181.281 55.0957 181.434 55.334C181.59 55.5723 181.668 55.8613 181.668 56.2012C181.668 56.7715 181.432 57.2344 180.959 57.5898C180.486 57.9414 179.867 58.1172 179.102 58.1172C178.582 58.1172 178.119 58.0234 177.713 57.8359C177.307 57.6484 176.99 57.3906 176.764 57.0625C176.537 56.7344 176.424 56.3809 176.424 56.002H177.807C177.826 56.3379 177.953 56.5977 178.188 56.7812C178.422 56.9609 178.732 57.0508 179.119 57.0508C179.494 57.0508 179.779 56.9805 179.975 56.8398C180.17 56.6953 180.268 56.5078 180.268 56.2773ZM187.416 58H185.992V51.6602H187.416V58ZM185.904 50.0137C185.904 49.7949 185.973 49.6133 186.109 49.4688C186.25 49.3242 186.449 49.252 186.707 49.252C186.965 49.252 187.164 49.3242 187.305 49.4688C187.445 49.6133 187.516 49.7949 187.516 50.0137C187.516 50.2285 187.445 50.4082 187.305 50.5527C187.164 50.6934 186.965 50.7637 186.707 50.7637C186.449 50.7637 186.25 50.6934 186.109 50.5527C185.973 50.4082 185.904 50.2285 185.904 50.0137ZM190.293 51.6602L190.334 52.3926C190.803 51.8262 191.418 51.543 192.18 51.543C193.5 51.543 194.172 52.2988 194.195 53.8105V58H192.771V53.8926C192.771 53.4902 192.684 53.1934 192.508 53.002C192.336 52.8066 192.053 52.709 191.658 52.709C191.084 52.709 190.656 52.9688 190.375 53.4883V58H188.951V51.6602H190.293ZM202.428 58C202.365 57.8789 202.311 57.6816 202.264 57.4082C201.811 57.8809 201.256 58.1172 200.6 58.1172C199.963 58.1172 199.443 57.9355 199.041 57.5723C198.639 57.209 198.438 56.7598 198.438 56.2246C198.438 55.5488 198.688 55.0312 199.188 54.6719C199.691 54.3086 200.41 54.127 201.344 54.127H202.217V53.7109C202.217 53.3828 202.125 53.1211 201.941 52.9258C201.758 52.7266 201.479 52.627 201.104 52.627C200.779 52.627 200.514 52.709 200.307 52.873C200.1 53.0332 199.996 53.2383 199.996 53.4883H198.572C198.572 53.1406 198.688 52.8164 198.918 52.5156C199.148 52.2109 199.461 51.9727 199.855 51.8008C200.254 51.6289 200.697 51.543 201.186 51.543C201.928 51.543 202.52 51.7305 202.961 52.1055C203.402 52.4766 203.629 53 203.641 53.6758V56.5352C203.641 57.1055 203.721 57.5605 203.881 57.9004V58H202.428ZM200.863 56.9746C201.145 56.9746 201.408 56.9062 201.654 56.7695C201.904 56.6328 202.092 56.4492 202.217 56.2188V55.0234H201.449C200.922 55.0234 200.525 55.1152 200.26 55.2988C199.994 55.4824 199.861 55.7422 199.861 56.0781C199.861 56.3516 199.951 56.5703 200.131 56.7344C200.314 56.8945 200.559 56.9746 200.863 56.9746ZM206.453 51.6602L206.494 52.3926C206.963 51.8262 207.578 51.543 208.34 51.543C209.66 51.543 210.332 52.2988 210.355 53.8105V58H208.932V53.8926C208.932 53.4902 208.844 53.1934 208.668 53.002C208.496 52.8066 208.213 52.709 207.818 52.709C207.244 52.709 206.816 52.9688 206.535 53.4883V58H205.111V51.6602H206.453ZM90.1328 72.3516C90.5977 71.8125 91.1855 71.543 91.8965 71.543C93.248 71.543 93.9336 72.3145 93.9531 73.8574V78H92.5293V73.9102C92.5293 73.4727 92.4336 73.1641 92.2422 72.9844C92.0547 72.8008 91.7773 72.709 91.4102 72.709C90.8398 72.709 90.4141 72.9629 90.1328 73.4707V78H88.709V69H90.1328V72.3516ZM95.1309 74.7715C95.1309 74.1504 95.2539 73.5918 95.5 73.0957C95.7461 72.5957 96.0918 72.2129 96.5371 71.9473C96.9824 71.6777 97.4941 71.543 98.0723 71.543C98.9277 71.543 99.6211 71.8184 100.152 72.3691C100.688 72.9199 100.977 73.6504 101.02 74.5605L101.025 74.8945C101.025 75.5195 100.904 76.0781 100.662 76.5703C100.424 77.0625 100.08 77.4434 99.6309 77.7129C99.1855 77.9824 98.6699 78.1172 98.084 78.1172C97.1895 78.1172 96.4727 77.8203 95.9336 77.2266C95.3984 76.6289 95.1309 75.834 95.1309 74.8418V74.7715ZM96.5547 74.8945C96.5547 75.5469 96.6895 76.0586 96.959 76.4297C97.2285 76.7969 97.6035 76.9805 98.084 76.9805C98.5645 76.9805 98.9375 76.793 99.2031 76.418C99.4727 76.043 99.6074 75.4941 99.6074 74.7715C99.6074 74.1309 99.4688 73.623 99.1914 73.248C98.918 72.873 98.5449 72.6855 98.0723 72.6855C97.6074 72.6855 97.2383 72.8711 96.9648 73.2422C96.6914 73.6094 96.5547 74.1602 96.5547 74.8945ZM106.07 77.3789C105.652 77.8711 105.059 78.1172 104.289 78.1172C103.602 78.1172 103.08 77.916 102.725 77.5137C102.373 77.1113 102.197 76.5293 102.197 75.7676V71.6602H103.621V75.75C103.621 76.5547 103.955 76.957 104.623 76.957C105.314 76.957 105.781 76.709 106.023 76.2129V71.6602H107.447V78H106.105L106.07 77.3789ZM112.217 72.9609C112.029 72.9297 111.836 72.9141 111.637 72.9141C110.984 72.9141 110.545 73.1641 110.318 73.6641V78H108.895V71.6602H110.254L110.289 72.3691C110.633 71.8184 111.109 71.543 111.719 71.543C111.922 71.543 112.09 71.5703 112.223 71.625L112.217 72.9609ZM118.867 74.9473H115.791V73.7988H118.867V74.9473ZM124.562 76.8164H129.121V78H122.77V77.0391L127.182 70.6641H122.799V69.4688H128.98V70.4062L124.562 76.8164ZM133.984 77.3789C133.566 77.8711 132.973 78.1172 132.203 78.1172C131.516 78.1172 130.994 77.916 130.639 77.5137C130.287 77.1113 130.111 76.5293 130.111 75.7676V71.6602H131.535V75.75C131.535 76.5547 131.869 76.957 132.537 76.957C133.229 76.957 133.695 76.709 133.938 76.2129V71.6602H135.361V78H134.02L133.984 77.3789ZM138.15 71.6602L138.191 72.3223C138.637 71.8027 139.246 71.543 140.02 71.543C140.867 71.543 141.447 71.8672 141.76 72.5156C142.221 71.8672 142.869 71.543 143.705 71.543C144.404 71.543 144.924 71.7363 145.264 72.123C145.607 72.5098 145.783 73.0801 145.791 73.834V78H144.367V73.875C144.367 73.4727 144.279 73.1777 144.104 72.9902C143.928 72.8027 143.637 72.709 143.23 72.709C142.906 72.709 142.641 72.7969 142.434 72.9727C142.23 73.1445 142.088 73.3711 142.006 73.6523L142.012 78H140.588V73.8281C140.568 73.082 140.188 72.709 139.445 72.709C138.875 72.709 138.471 72.9414 138.232 73.4062V78H136.809V71.6602H138.15ZM152.816 74.8945C152.816 75.8789 152.596 76.6621 152.154 77.2441C151.717 77.8262 151.113 78.1172 150.344 78.1172C149.602 78.1172 149.023 77.8496 148.609 77.3145L148.539 78H147.25V69H148.674V72.2695C149.084 71.7852 149.637 71.543 150.332 71.543C151.105 71.543 151.713 71.8301 152.154 72.4043C152.596 72.9785 152.816 73.7812 152.816 74.8125V74.8945ZM151.393 74.7715C151.393 74.084 151.271 73.5684 151.029 73.2246C150.787 72.8809 150.436 72.709 149.975 72.709C149.357 72.709 148.924 72.9785 148.674 73.5176V76.1309C148.928 76.6816 149.365 76.957 149.986 76.957C150.432 76.957 150.775 76.791 151.018 76.459C151.26 76.127 151.385 75.625 151.393 74.9531V74.7715ZM157.803 78C157.74 77.8789 157.686 77.6816 157.639 77.4082C157.186 77.8809 156.631 78.1172 155.975 78.1172C155.338 78.1172 154.818 77.9355 154.416 77.5723C154.014 77.209 153.812 76.7598 153.812 76.2246C153.812 75.5488 154.062 75.0312 154.562 74.6719C155.066 74.3086 155.785 74.127 156.719 74.127H157.592V73.7109C157.592 73.3828 157.5 73.1211 157.316 72.9258C157.133 72.7266 156.854 72.627 156.479 72.627C156.154 72.627 155.889 72.709 155.682 72.873C155.475 73.0332 155.371 73.2383 155.371 73.4883H153.947C153.947 73.1406 154.062 72.8164 154.293 72.5156C154.523 72.2109 154.836 71.9727 155.23 71.8008C155.629 71.6289 156.072 71.543 156.561 71.543C157.303 71.543 157.895 71.7305 158.336 72.1055C158.777 72.4766 159.004 73 159.016 73.6758V76.5352C159.016 77.1055 159.096 77.5605 159.256 77.9004V78H157.803ZM156.238 76.9746C156.52 76.9746 156.783 76.9062 157.029 76.7695C157.279 76.6328 157.467 76.4492 157.592 76.2188V75.0234H156.824C156.297 75.0234 155.9 75.1152 155.635 75.2988C155.369 75.4824 155.236 75.7422 155.236 76.0781C155.236 76.3516 155.326 76.5703 155.506 76.7344C155.689 76.8945 155.934 76.9746 156.238 76.9746ZM168.092 75.8027C168.092 75.4277 167.959 75.1387 167.693 74.9355C167.432 74.7324 166.957 74.5273 166.27 74.3203C165.582 74.1133 165.035 73.8828 164.629 73.6289C163.852 73.1406 163.463 72.5039 163.463 71.7188C163.463 71.0312 163.742 70.4648 164.301 70.0195C164.863 69.5742 165.592 69.3516 166.486 69.3516C167.08 69.3516 167.609 69.4609 168.074 69.6797C168.539 69.8984 168.904 70.2109 169.17 70.6172C169.436 71.0195 169.568 71.4668 169.568 71.959H168.092C168.092 71.5137 167.951 71.166 167.67 70.916C167.393 70.6621 166.994 70.5352 166.475 70.5352C165.99 70.5352 165.613 70.6387 165.344 70.8457C165.078 71.0527 164.945 71.3418 164.945 71.7129C164.945 72.0254 165.09 72.2871 165.379 72.498C165.668 72.7051 166.145 72.9082 166.809 73.1074C167.473 73.3027 168.006 73.5273 168.408 73.7812C168.811 74.0312 169.105 74.3203 169.293 74.6484C169.48 74.9727 169.574 75.3535 169.574 75.791C169.574 76.502 169.301 77.0684 168.754 77.4902C168.211 77.9082 167.473 78.1172 166.539 78.1172C165.922 78.1172 165.354 78.0039 164.834 77.7773C164.318 77.5469 163.916 77.2305 163.627 76.8281C163.342 76.4258 163.199 75.957 163.199 75.4219H164.682C164.682 75.9062 164.842 76.2812 165.162 76.5469C165.482 76.8125 165.941 76.9453 166.539 76.9453C167.055 76.9453 167.441 76.8418 167.699 76.6348C167.961 76.4238 168.092 76.1465 168.092 75.8027ZM173.529 78.1172C172.627 78.1172 171.895 77.834 171.332 77.2676C170.773 76.6973 170.494 75.9395 170.494 74.9941V74.8184C170.494 74.1855 170.615 73.6211 170.857 73.125C171.104 72.625 171.447 72.2363 171.889 71.959C172.33 71.6816 172.822 71.543 173.365 71.543C174.229 71.543 174.895 71.8184 175.363 72.3691C175.836 72.9199 176.072 73.6992 176.072 74.707V75.2812H171.93C171.973 75.8047 172.146 76.2188 172.451 76.5234C172.76 76.8281 173.146 76.9805 173.611 76.9805C174.264 76.9805 174.795 76.7168 175.205 76.1895L175.973 76.9219C175.719 77.3008 175.379 77.5957 174.953 77.8066C174.531 78.0137 174.057 78.1172 173.529 78.1172ZM173.359 72.6855C172.969 72.6855 172.652 72.8223 172.41 73.0957C172.172 73.3691 172.02 73.75 171.953 74.2383H174.666V74.1328C174.635 73.6562 174.508 73.2969 174.285 73.0547C174.062 72.8086 173.754 72.6855 173.359 72.6855ZM180.736 76.2773C180.736 76.0234 180.631 75.8301 180.42 75.6973C180.213 75.5645 179.867 75.4473 179.383 75.3457C178.898 75.2441 178.494 75.1152 178.17 74.959C177.459 74.6152 177.104 74.1172 177.104 73.4648C177.104 72.918 177.334 72.4609 177.795 72.0938C178.256 71.7266 178.842 71.543 179.553 71.543C180.311 71.543 180.922 71.7305 181.387 72.1055C181.855 72.4805 182.09 72.9668 182.09 73.5645H180.666C180.666 73.291 180.564 73.0645 180.361 72.8848C180.158 72.7012 179.889 72.6094 179.553 72.6094C179.24 72.6094 178.984 72.6816 178.785 72.8262C178.59 72.9707 178.492 73.1641 178.492 73.4062C178.492 73.625 178.584 73.7949 178.768 73.916C178.951 74.0371 179.322 74.1602 179.881 74.2852C180.439 74.4062 180.877 74.5527 181.193 74.7246C181.514 74.8926 181.75 75.0957 181.902 75.334C182.059 75.5723 182.137 75.8613 182.137 76.2012C182.137 76.7715 181.9 77.2344 181.428 77.5898C180.955 77.9414 180.336 78.1172 179.57 78.1172C179.051 78.1172 178.588 78.0234 178.182 77.8359C177.775 77.6484 177.459 77.3906 177.232 77.0625C177.006 76.7344 176.893 76.3809 176.893 76.002H178.275C178.295 76.3379 178.422 76.5977 178.656 76.7812C178.891 76.9609 179.201 77.0508 179.588 77.0508C179.963 77.0508 180.248 76.9805 180.443 76.8398C180.639 76.6953 180.736 76.5078 180.736 76.2773ZM186.936 76.2773C186.936 76.0234 186.83 75.8301 186.619 75.6973C186.412 75.5645 186.066 75.4473 185.582 75.3457C185.098 75.2441 184.693 75.1152 184.369 74.959C183.658 74.6152 183.303 74.1172 183.303 73.4648C183.303 72.918 183.533 72.4609 183.994 72.0938C184.455 71.7266 185.041 71.543 185.752 71.543C186.51 71.543 187.121 71.7305 187.586 72.1055C188.055 72.4805 188.289 72.9668 188.289 73.5645H186.865C186.865 73.291 186.764 73.0645 186.561 72.8848C186.357 72.7012 186.088 72.6094 185.752 72.6094C185.439 72.6094 185.184 72.6816 184.984 72.8262C184.789 72.9707 184.691 73.1641 184.691 73.4062C184.691 73.625 184.783 73.7949 184.967 73.916C185.15 74.0371 185.521 74.1602 186.08 74.2852C186.639 74.4062 187.076 74.5527 187.393 74.7246C187.713 74.8926 187.949 75.0957 188.102 75.334C188.258 75.5723 188.336 75.8613 188.336 76.2012C188.336 76.7715 188.1 77.2344 187.627 77.5898C187.154 77.9414 186.535 78.1172 185.77 78.1172C185.25 78.1172 184.787 78.0234 184.381 77.8359C183.975 77.6484 183.658 77.3906 183.432 77.0625C183.205 76.7344 183.092 76.3809 183.092 76.002H184.475C184.494 76.3379 184.621 76.5977 184.855 76.7812C185.09 76.9609 185.4 77.0508 185.787 77.0508C186.162 77.0508 186.447 76.9805 186.643 76.8398C186.838 76.6953 186.936 76.5078 186.936 76.2773ZM191.096 78H189.672V71.6602H191.096V78ZM189.584 70.0137C189.584 69.7949 189.652 69.6133 189.789 69.4688C189.93 69.3242 190.129 69.252 190.387 69.252C190.645 69.252 190.844 69.3242 190.984 69.4688C191.125 69.6133 191.195 69.7949 191.195 70.0137C191.195 70.2285 191.125 70.4082 190.984 70.5527C190.844 70.6934 190.645 70.7637 190.387 70.7637C190.129 70.7637 189.93 70.6934 189.789 70.5527C189.652 70.4082 189.584 70.2285 189.584 70.0137ZM192.385 74.7715C192.385 74.1504 192.508 73.5918 192.754 73.0957C193 72.5957 193.346 72.2129 193.791 71.9473C194.236 71.6777 194.748 71.543 195.326 71.543C196.182 71.543 196.875 71.8184 197.406 72.3691C197.941 72.9199 198.23 73.6504 198.273 74.5605L198.279 74.8945C198.279 75.5195 198.158 76.0781 197.916 76.5703C197.678 77.0625 197.334 77.4434 196.885 77.7129C196.439 77.9824 195.924 78.1172 195.338 78.1172C194.443 78.1172 193.727 77.8203 193.188 77.2266C192.652 76.6289 192.385 75.834 192.385 74.8418V74.7715ZM193.809 74.8945C193.809 75.5469 193.943 76.0586 194.213 76.4297C194.482 76.7969 194.857 76.9805 195.338 76.9805C195.818 76.9805 196.191 76.793 196.457 76.418C196.727 76.043 196.861 75.4941 196.861 74.7715C196.861 74.1309 196.723 73.623 196.445 73.248C196.172 72.873 195.799 72.6855 195.326 72.6855C194.861 72.6855 194.492 72.8711 194.219 73.2422C193.945 73.6094 193.809 74.1602 193.809 74.8945ZM200.805 71.6602L200.846 72.3926C201.314 71.8262 201.93 71.543 202.691 71.543C204.012 71.543 204.684 72.2988 204.707 73.8105V78H203.283V73.8926C203.283 73.4902 203.195 73.1934 203.02 73.002C202.848 72.8066 202.564 72.709 202.17 72.709C201.596 72.709 201.168 72.9688 200.887 73.4883V78H199.463V71.6602H200.805Z" fill="#373759"/>
<path d="M71.6275 62.375C71.6275 62.375 69.7525 64.125 66.565 66.1875C65.69 61.125 63.2525 54.875 58.5025 47.25C58.5025 47.25 56.94 55.4375 51.7525 63.125C49.5025 59.625 48.5025 56.875 48.5025 56.875C32.2525 73.1875 45.7525 84.75 54.2525 84.75C65.1275 84.75 74.69 79.5 71.6275 62.375" fill="#FF9D33"/>
<path d="M65.1875 76.8751C66.125 74.8126 66.8125 72.1251 66.9375 68.7501C66.9375 68.7501 65.625 69.8751 63.375 71.3126C62.75 67.9376 61.0625 63.8126 57.75 58.6876C57.75 58.6876 56.6875 64.1251 53.0625 69.3126C51.5 67.0001 50.8125 65.1251 50.8125 65.1251C48.125 69.3751 47.0625 72.7501 47 75.4376C45.5 74.8751 44.5625 74.4376 44.5625 74.4376C47.125 82.0626 52.4375 83.7501 54.8125 83.7501C59.0625 83.7501 63.375 82.5001 67.625 76.4376C67.625 76.3751 66.6875 76.6251 65.1875 76.8751" fill="#FFCE31"/>
<path d="M49.6866 73.4375C49.6866 73.4375 51.4366 75.8125 52.7491 75.25C52.7491 75.25 55.2491 71.3125 58.8741 69.125C58.8741 69.125 58.1241 75.125 58.9991 76.1875C60.1241 77.625 63.1866 74.625 63.1866 74.625C63.1866 78.1875 59.3116 82.625 55.8116 82.625C52.4366 82.625 47.5616 78.75 49.6866 73.4375" fill="#FFDF85"/>
<path d="M67.1252 57.3124C68.4377 55.4374 69.3127 53.4374 69.3127 53.4374C71.5002 57.0624 70.1877 59.2499 69.2502 59.9374C67.9377 60.9374 65.6252 59.4999 67.1252 57.3124" fill="#FF9D33"/>
<path d="M43.2522 56.6874C41.9397 54.4999 41.8147 51.7499 41.8147 51.7499C38.6897 56.4374 39.8772 59.0624 40.9397 59.8124C42.3147 60.8749 44.6897 59.2499 43.2522 56.6874" fill="#FF9D33"/>
<path d="M50.5 51.8125C50.6875 50.3125 50.0625 48.8125 50.0625 48.8125C53 50.75 53 52.375 52.625 53.0625C52.0625 53.875 50.3125 53.5 50.5 51.8125" fill="#FF9D33"/>
<path d="M247 65C247 62.7909 248.791 61 251 61H324C326.209 61 328 62.7909 328 65V79C328 81.2091 326.209 83 324 83H251C248.791 83 247 81.2091 247 79V65Z" fill="#BD00FD"/>
<path d="M262.175 69.3125H263.542V73.2148C263.542 73.5768 263.457 73.8997 263.288 74.1836C263.121 74.4674 262.887 74.6875 262.585 74.8438C262.286 75 261.951 75.0781 261.581 75.0781C260.961 75.0781 260.48 74.9219 260.136 74.6094C259.792 74.2969 259.62 73.8542 259.62 73.2812H260.995C260.995 73.5417 261.039 73.7305 261.128 73.8477C261.219 73.9648 261.37 74.0234 261.581 74.0234C261.771 74.0234 261.917 73.9531 262.019 73.8125C262.123 73.6693 262.175 73.4701 262.175 73.2148V69.3125ZM264.343 72.8477C264.343 72.4258 264.425 72.0508 264.589 71.7227C264.753 71.3919 264.988 71.138 265.296 70.9609C265.603 70.7839 265.964 70.6953 266.378 70.6953C267.011 70.6953 267.509 70.8919 267.874 71.2852C268.238 71.6758 268.421 72.2083 268.421 72.8828V72.9297C268.421 73.5885 268.237 74.112 267.87 74.5C267.505 74.8854 267.011 75.0781 266.386 75.0781C265.784 75.0781 265.301 74.8984 264.936 74.5391C264.572 74.1771 264.375 73.6875 264.347 73.0703L264.343 72.8477ZM265.659 72.9297C265.659 73.3203 265.72 73.6068 265.843 73.7891C265.965 73.9714 266.146 74.0625 266.386 74.0625C266.854 74.0625 267.094 73.7018 267.104 72.9805V72.8477C267.104 72.0898 266.862 71.7109 266.378 71.7109C265.938 71.7109 265.699 72.0378 265.663 72.6914L265.659 72.9297ZM270.55 75H269.229V70.7734H270.55V75ZM269.151 69.6836C269.151 69.4961 269.219 69.3424 269.354 69.2227C269.49 69.1029 269.665 69.043 269.882 69.043C270.098 69.043 270.273 69.1029 270.409 69.2227C270.544 69.3424 270.612 69.4961 270.612 69.6836C270.612 69.8711 270.544 70.0247 270.409 70.1445C270.273 70.2643 270.098 70.3242 269.882 70.3242C269.665 70.3242 269.49 70.2643 269.354 70.1445C269.219 70.0247 269.151 69.8711 269.151 69.6836ZM272.733 70.7734L272.776 71.2695C273.068 70.8867 273.47 70.6953 273.983 70.6953C274.423 70.6953 274.751 70.8268 274.967 71.0898C275.186 71.3529 275.299 71.7487 275.307 72.2773V75H273.987V72.332C273.987 72.1185 273.944 71.9622 273.858 71.8633C273.772 71.7617 273.616 71.7109 273.389 71.7109C273.131 71.7109 272.94 71.8125 272.815 72.0156V75H271.499V70.7734H272.733ZM283.014 73.0742C282.996 73.4701 282.889 73.8203 282.694 74.125C282.498 74.4271 282.224 74.6615 281.869 74.8281C281.518 74.9948 281.115 75.0781 280.662 75.0781C279.915 75.0781 279.326 74.8346 278.897 74.3477C278.467 73.8607 278.252 73.1732 278.252 72.2852V72.0039C278.252 71.4466 278.349 70.9596 278.541 70.543C278.737 70.1237 279.017 69.8008 279.381 69.5742C279.746 69.3451 280.168 69.2305 280.647 69.2305C281.337 69.2305 281.892 69.4128 282.311 69.7773C282.73 70.1393 282.968 70.6393 283.026 71.2773H281.658C281.648 70.931 281.561 70.6823 281.397 70.5312C281.233 70.3802 280.983 70.3047 280.647 70.3047C280.306 70.3047 280.056 70.4323 279.897 70.6875C279.738 70.9427 279.655 71.3503 279.647 71.9102V72.3125C279.647 72.9193 279.722 73.3529 279.873 73.6133C280.027 73.8737 280.29 74.0039 280.662 74.0039C280.977 74.0039 281.218 73.9297 281.385 73.7812C281.552 73.6328 281.64 73.3971 281.651 73.0742H283.014ZM285.049 71.2266C285.33 70.8724 285.69 70.6953 286.127 70.6953C286.593 70.6953 286.945 70.8333 287.182 71.1094C287.419 71.3854 287.54 71.793 287.545 72.332V75H286.225V72.3633C286.225 72.1393 286.179 71.9753 286.088 71.8711C285.997 71.7643 285.842 71.7109 285.623 71.7109C285.352 71.7109 285.161 71.7969 285.049 71.9688V75H283.732V69H285.049V71.2266ZM290.818 75C290.771 74.9141 290.73 74.7878 290.693 74.6211C290.451 74.9258 290.113 75.0781 289.678 75.0781C289.279 75.0781 288.941 74.9583 288.662 74.7188C288.383 74.4766 288.244 74.1732 288.244 73.8086C288.244 73.3503 288.413 73.0039 288.752 72.7695C289.09 72.5352 289.583 72.418 290.228 72.418H290.635V72.1953C290.635 71.8073 290.467 71.6133 290.131 71.6133C289.818 71.6133 289.662 71.7669 289.662 72.0742H288.346C288.346 71.6654 288.519 71.3333 288.865 71.0781C289.214 70.8229 289.658 70.6953 290.197 70.6953C290.736 70.6953 291.162 70.8268 291.475 71.0898C291.787 71.3529 291.947 71.7135 291.955 72.1719V74.043C291.96 74.431 292.02 74.7279 292.135 74.9336V75H290.818ZM289.994 74.1406C290.158 74.1406 290.294 74.1055 290.4 74.0352C290.51 73.9648 290.588 73.8854 290.635 73.7969V73.1211H290.252C289.794 73.1211 289.564 73.3268 289.564 73.7383C289.564 73.8581 289.605 73.9557 289.685 74.0312C289.766 74.1042 289.869 74.1406 289.994 74.1406ZM294.236 75H292.916V69H294.236V75ZM296.599 75H295.279V69H296.599V75ZM299.619 75.0781C298.97 75.0781 298.445 74.8854 298.044 74.5C297.643 74.112 297.443 73.6081 297.443 72.9883V72.8789C297.443 72.4466 297.522 72.0651 297.681 71.7344C297.843 71.4036 298.077 71.1484 298.384 70.9688C298.692 70.7865 299.056 70.6953 299.478 70.6953C300.072 70.6953 300.54 70.8802 300.884 71.25C301.228 71.6172 301.4 72.1302 301.4 72.7891V73.3008H298.783C298.83 73.5378 298.932 73.724 299.091 73.8594C299.25 73.9948 299.456 74.0625 299.708 74.0625C300.125 74.0625 300.451 73.9167 300.685 73.625L301.287 74.3359C301.122 74.5625 300.889 74.7435 300.587 74.8789C300.288 75.0117 299.965 75.0781 299.619 75.0781ZM299.47 71.7109C299.085 71.7109 298.856 71.9661 298.783 72.4766H300.111V72.375C300.116 72.1641 300.063 72.0013 299.951 71.8867C299.839 71.7695 299.678 71.7109 299.47 71.7109ZM303.302 70.7734L303.345 71.2695C303.637 70.8867 304.039 70.6953 304.552 70.6953C304.992 70.6953 305.32 70.8268 305.536 71.0898C305.755 71.3529 305.868 71.7487 305.876 72.2773V75H304.556V72.332C304.556 72.1185 304.513 71.9622 304.427 71.8633C304.341 71.7617 304.185 71.7109 303.958 71.7109C303.7 71.7109 303.509 71.8125 303.384 72.0156V75H302.068V70.7734H303.302ZM306.614 72.8555C306.614 72.4284 306.685 72.0508 306.825 71.7227C306.966 71.3945 307.168 71.1419 307.431 70.9648C307.694 70.7852 308 70.6953 308.349 70.6953C308.789 70.6953 309.133 70.8438 309.38 71.1406L309.427 70.7734H310.622V74.8398C310.622 75.2122 310.535 75.5352 310.36 75.8086C310.189 76.0846 309.939 76.2956 309.61 76.4414C309.282 76.5898 308.902 76.6641 308.47 76.6641C308.16 76.6641 307.859 76.6055 307.567 76.4883C307.278 76.3711 307.057 76.2188 306.903 76.0312L307.454 75.2578C307.699 75.5469 308.022 75.6914 308.423 75.6914C309.006 75.6914 309.298 75.3919 309.298 74.793V74.6602C309.045 74.9388 308.726 75.0781 308.341 75.0781C307.825 75.0781 307.409 74.8815 307.091 74.4883C306.773 74.0924 306.614 73.5638 306.614 72.9023V72.8555ZM307.935 72.9375C307.935 73.2839 308 73.5586 308.13 73.7617C308.26 73.9622 308.442 74.0625 308.677 74.0625C308.961 74.0625 309.168 73.9674 309.298 73.7773V72C309.17 71.8073 308.966 71.7109 308.685 71.7109C308.45 71.7109 308.267 71.8164 308.134 72.0273C308.001 72.2357 307.935 72.5391 307.935 72.9375ZM313.575 75.0781C312.927 75.0781 312.402 74.8854 312.001 74.5C311.6 74.112 311.399 73.6081 311.399 72.9883V72.8789C311.399 72.4466 311.479 72.0651 311.638 71.7344C311.799 71.4036 312.033 71.1484 312.341 70.9688C312.648 70.7865 313.013 70.6953 313.435 70.6953C314.028 70.6953 314.497 70.8802 314.841 71.25C315.185 71.6172 315.356 72.1302 315.356 72.7891V73.3008H312.739C312.786 73.5378 312.889 73.724 313.048 73.8594C313.207 73.9948 313.412 74.0625 313.665 74.0625C314.082 74.0625 314.407 73.9167 314.642 73.625L315.243 74.3359C315.079 74.5625 314.846 74.7435 314.544 74.8789C314.244 75.0117 313.922 75.0781 313.575 75.0781ZM313.427 71.7109C313.041 71.7109 312.812 71.9661 312.739 72.4766H314.067V72.375C314.073 72.1641 314.019 72.0013 313.907 71.8867C313.795 71.7695 313.635 71.7109 313.427 71.7109Z" fill="white"/>
<path d="M261.66 39V33.3125H263.266C263.76 33.3125 264.198 33.4219 264.578 33.6406C264.958 33.8594 265.251 34.1706 265.457 34.5742C265.665 34.9779 265.771 35.4414 265.773 35.9648V36.3281C265.773 36.8646 265.669 37.3346 265.461 37.7383C265.255 38.1419 264.96 38.4518 264.574 38.668C264.191 38.8841 263.745 38.9948 263.234 39H261.66ZM262.41 33.9297V38.3867H263.199C263.777 38.3867 264.227 38.207 264.547 37.8477C264.87 37.4883 265.031 36.9766 265.031 36.3125V35.9805C265.031 35.3346 264.879 34.8333 264.574 34.4766C264.272 34.1172 263.842 33.9349 263.285 33.9297H262.41ZM269.406 39C269.365 38.9167 269.331 38.7682 269.305 38.5547C268.969 38.9036 268.568 39.0781 268.102 39.0781C267.685 39.0781 267.342 38.9609 267.074 38.7266C266.809 38.4896 266.676 38.1901 266.676 37.8281C266.676 37.388 266.842 37.0469 267.176 36.8047C267.512 36.5599 267.983 36.4375 268.59 36.4375H269.293V36.1055C269.293 35.8529 269.217 35.6523 269.066 35.5039C268.915 35.3529 268.693 35.2773 268.398 35.2773C268.141 35.2773 267.924 35.3424 267.75 35.4727C267.576 35.6029 267.488 35.7604 267.488 35.9453H266.762C266.762 35.7344 266.836 35.5312 266.984 35.3359C267.135 35.138 267.339 34.9818 267.594 34.8672C267.852 34.7526 268.134 34.6953 268.441 34.6953C268.928 34.6953 269.31 34.8177 269.586 35.0625C269.862 35.3047 270.005 35.6393 270.016 36.0664V38.0117C270.016 38.3997 270.065 38.7083 270.164 38.9375V39H269.406ZM268.207 38.4492C268.434 38.4492 268.648 38.3906 268.852 38.2734C269.055 38.1562 269.202 38.0039 269.293 37.8164V36.9492H268.727C267.841 36.9492 267.398 37.2083 267.398 37.7266C267.398 37.9531 267.474 38.1302 267.625 38.2578C267.776 38.3854 267.97 38.4492 268.207 38.4492ZM272.129 33.75V34.7734H272.918V35.332H272.129V37.9531C272.129 38.1224 272.164 38.25 272.234 38.3359C272.305 38.4193 272.424 38.4609 272.594 38.4609C272.677 38.4609 272.792 38.4453 272.938 38.4141V39C272.747 39.0521 272.562 39.0781 272.383 39.0781C272.06 39.0781 271.816 38.9805 271.652 38.7852C271.488 38.5898 271.406 38.3125 271.406 37.9531V35.332H270.637V34.7734H271.406V33.75H272.129ZM275.52 39.0781C274.947 39.0781 274.48 38.8906 274.121 38.5156C273.762 38.138 273.582 37.6341 273.582 37.0039V36.8711C273.582 36.4518 273.661 36.0781 273.82 35.75C273.982 35.4193 274.206 35.1615 274.492 34.9766C274.781 34.7891 275.094 34.6953 275.43 34.6953C275.979 34.6953 276.406 34.8763 276.711 35.2383C277.016 35.6003 277.168 36.1185 277.168 36.793V37.0938H274.305C274.315 37.5104 274.436 37.8477 274.668 38.1055C274.902 38.3607 275.199 38.4883 275.559 38.4883C275.814 38.4883 276.03 38.4362 276.207 38.332C276.384 38.2279 276.539 38.0898 276.672 37.918L277.113 38.2617C276.759 38.806 276.228 39.0781 275.52 39.0781ZM275.43 35.2891C275.138 35.2891 274.893 35.3958 274.695 35.6094C274.497 35.8203 274.375 36.1172 274.328 36.5H276.445V36.4453C276.424 36.0781 276.326 35.7943 276.148 35.5938C275.971 35.3906 275.732 35.2891 275.43 35.2891ZM281.496 36.8789H279.59V36.2891H281.496V36.8789ZM287.84 39H284.113V38.4805L286.082 36.293C286.374 35.9622 286.574 35.694 286.684 35.4883C286.796 35.2799 286.852 35.0651 286.852 34.8438C286.852 34.5469 286.762 34.3034 286.582 34.1133C286.402 33.9232 286.163 33.8281 285.863 33.8281C285.504 33.8281 285.224 33.931 285.023 34.1367C284.826 34.3398 284.727 34.6237 284.727 34.9883H284.004C284.004 34.4648 284.172 34.0417 284.508 33.7188C284.846 33.3958 285.298 33.2344 285.863 33.2344C286.392 33.2344 286.81 33.3737 287.117 33.6523C287.424 33.9284 287.578 34.2969 287.578 34.7578C287.578 35.3177 287.221 35.9844 286.508 36.7578L284.984 38.4102H287.84V39ZM291.656 37.0898H292.445V37.6797H291.656V39H290.93V37.6797H288.34V37.2539L290.887 33.3125H291.656V37.0898ZM289.16 37.0898H290.93V34.3008L290.844 34.457L289.16 37.0898ZM293.316 39.4883H292.695L295.07 33.3125H295.688L293.316 39.4883ZM299.961 36.5742C299.961 37.4206 299.816 38.0495 299.527 38.4609C299.238 38.8724 298.786 39.0781 298.172 39.0781C297.565 39.0781 297.116 38.8776 296.824 38.4766C296.533 38.0729 296.382 37.4714 296.371 36.6719V35.707C296.371 34.8711 296.516 34.25 296.805 33.8438C297.094 33.4375 297.547 33.2344 298.164 33.2344C298.776 33.2344 299.227 33.431 299.516 33.8242C299.805 34.2148 299.953 34.819 299.961 35.6367V36.5742ZM299.238 35.5859C299.238 34.974 299.152 34.5286 298.98 34.25C298.809 33.9688 298.536 33.8281 298.164 33.8281C297.794 33.8281 297.525 33.9674 297.355 34.2461C297.186 34.5247 297.099 34.9531 297.094 35.5312V36.6875C297.094 37.3021 297.182 37.7565 297.359 38.0508C297.539 38.3424 297.81 38.4883 298.172 38.4883C298.529 38.4883 298.793 38.3503 298.965 38.0742C299.139 37.7982 299.23 37.3633 299.238 36.7695V35.5859ZM304.336 34.7969C304.336 35.0807 304.26 35.3333 304.109 35.5547C303.961 35.776 303.759 35.9492 303.504 36.0742C303.801 36.2018 304.035 36.388 304.207 36.6328C304.382 36.8776 304.469 37.1549 304.469 37.4648C304.469 37.957 304.302 38.349 303.969 38.6406C303.638 38.9323 303.202 39.0781 302.66 39.0781C302.113 39.0781 301.674 38.9323 301.344 38.6406C301.016 38.3464 300.852 37.9544 300.852 37.4648C300.852 37.1576 300.935 36.8802 301.102 36.6328C301.271 36.3854 301.504 36.1979 301.801 36.0703C301.548 35.9453 301.349 35.7721 301.203 35.5508C301.057 35.3294 300.984 35.0781 300.984 34.7969C300.984 34.3177 301.138 33.9375 301.445 33.6562C301.753 33.375 302.158 33.2344 302.66 33.2344C303.16 33.2344 303.564 33.375 303.871 33.6562C304.181 33.9375 304.336 34.3177 304.336 34.7969ZM303.746 37.4492C303.746 37.1315 303.645 36.8724 303.441 36.6719C303.241 36.4714 302.978 36.3711 302.652 36.3711C302.327 36.3711 302.065 36.4701 301.867 36.668C301.672 36.8659 301.574 37.1263 301.574 37.4492C301.574 37.7721 301.669 38.026 301.859 38.2109C302.052 38.3958 302.319 38.4883 302.66 38.4883C302.999 38.4883 303.264 38.3958 303.457 38.2109C303.65 38.0234 303.746 37.7695 303.746 37.4492ZM302.66 33.8281C302.376 33.8281 302.146 33.9167 301.969 34.0938C301.794 34.2682 301.707 34.5065 301.707 34.8086C301.707 35.0977 301.793 35.332 301.965 35.5117C302.139 35.6888 302.371 35.7773 302.66 35.7773C302.949 35.7773 303.18 35.6888 303.352 35.5117C303.526 35.332 303.613 35.0977 303.613 34.8086C303.613 34.5195 303.523 34.2839 303.344 34.1016C303.164 33.9193 302.936 33.8281 302.66 33.8281ZM305.598 39.4883H304.977L307.352 33.3125H307.969L305.598 39.4883ZM312.402 39H308.676V38.4805L310.645 36.293C310.936 35.9622 311.137 35.694 311.246 35.4883C311.358 35.2799 311.414 35.0651 311.414 34.8438C311.414 34.5469 311.324 34.3034 311.145 34.1133C310.965 33.9232 310.725 33.8281 310.426 33.8281C310.066 33.8281 309.786 33.931 309.586 34.1367C309.388 34.3398 309.289 34.6237 309.289 34.9883H308.566C308.566 34.4648 308.734 34.0417 309.07 33.7188C309.409 33.3958 309.861 33.2344 310.426 33.2344C310.954 33.2344 311.372 33.3737 311.68 33.6523C311.987 33.9284 312.141 34.2969 312.141 34.7578C312.141 35.3177 311.784 35.9844 311.07 36.7578L309.547 38.4102H312.402V39ZM316.734 36.5742C316.734 37.4206 316.59 38.0495 316.301 38.4609C316.012 38.8724 315.56 39.0781 314.945 39.0781C314.339 39.0781 313.889 38.8776 313.598 38.4766C313.306 38.0729 313.155 37.4714 313.145 36.6719V35.707C313.145 34.8711 313.289 34.25 313.578 33.8438C313.867 33.4375 314.32 33.2344 314.938 33.2344C315.549 33.2344 316 33.431 316.289 33.8242C316.578 34.2148 316.727 34.819 316.734 35.6367V36.5742ZM316.012 35.5859C316.012 34.974 315.926 34.5286 315.754 34.25C315.582 33.9688 315.31 33.8281 314.938 33.8281C314.568 33.8281 314.298 33.9674 314.129 34.2461C313.96 34.5247 313.872 34.9531 313.867 35.5312V36.6875C313.867 37.3021 313.956 37.7565 314.133 38.0508C314.312 38.3424 314.583 38.4883 314.945 38.4883C315.302 38.4883 315.566 38.3503 315.738 38.0742C315.913 37.7982 316.004 37.3633 316.012 36.7695V35.5859ZM321.387 39H317.66V38.4805L319.629 36.293C319.921 35.9622 320.121 35.694 320.23 35.4883C320.342 35.2799 320.398 35.0651 320.398 34.8438C320.398 34.5469 320.309 34.3034 320.129 34.1133C319.949 33.9232 319.71 33.8281 319.41 33.8281C319.051 33.8281 318.771 33.931 318.57 34.1367C318.372 34.3398 318.273 34.6237 318.273 34.9883H317.551C317.551 34.4648 317.719 34.0417 318.055 33.7188C318.393 33.3958 318.845 33.2344 319.41 33.2344C319.939 33.2344 320.357 33.3737 320.664 33.6523C320.971 33.9284 321.125 34.2969 321.125 34.7578C321.125 35.3177 320.768 35.9844 320.055 36.7578L318.531 38.4102H321.387V39ZM324.527 39H323.801V34.1836L322.344 34.7188V34.0625L324.414 33.2852H324.527V39Z" fill="#1A1B41"/>
</g>
<defs>
<filter id="filter0_d_168_6748" x="0" y="0" width="361" height="146" filterUnits="userSpaceOnUse" color-interpolation-filters="sRGB">
<feFlood flood-opacity="0" result="BackgroundImageFix"/>
<feColorMatrix in="SourceAlpha" type="matrix" values="0 0 0 0 0 0 0 0 0 0 0 0 0 0 0 0 0 0 127 0" result="hardAlpha"/>
<feOffset dy="4"/>
<feGaussianBlur stdDeviation="12.5"/>
<feComposite in2="hardAlpha" operator="out"/>
<feColorMatrix type="matrix" values="0 0 0 0 0 0 0 0 0 0 0 0 0 0 0 0 0 0 0.08 0"/>
<feBlend mode="normal" in2="BackgroundImageFix" result="effect1_dropShadow_168_6748"/>
<feBlend mode="normal" in="SourceGraphic" in2="effect1_dropShadow_168_6748" result="shape"/>
</filter>
</defs>
</svg>
