<svg width="32" height="32" viewBox="0 0 32 32" fill="none" xmlns="http://www.w3.org/2000/svg">
<path fill-rule="evenodd" clip-rule="evenodd" d="M21.8115 22.8496H30.7834V24.5108H21.8115V22.8496Z" fill="#FDDFB2"/>
<path fill-rule="evenodd" clip-rule="evenodd" d="M25.4307 19.23H27.0919V28.2H25.4307V19.23Z" fill="#FDDFB2"/>
<path fill-rule="evenodd" clip-rule="evenodd" d="M23.4706 17.3445H28.9988C30.0936 15.2906 30.803 12.9454 30.803 10.2944C30.8058 9.33872 30.6203 8.39186 30.257 7.50793C29.8937 6.624 29.3597 5.82035 28.6857 5.14291C28.0116 4.46547 27.2106 3.92752 26.3285 3.55983C25.4464 3.19213 24.5004 3.0019 23.5448 3C21.8933 3.00381 20.2924 3.57014 19.006 4.60564C17.7195 5.64115 16.8241 7.08404 16.4675 8.69654C16.0969 7.07981 15.1892 5.63643 13.8927 4.60187C12.5963 3.56731 10.9874 3.00265 9.32877 3C5.28076 3 2 6.30066 2 10.3686C2 22.1236 16.4856 28.1712 16.4856 28.1712C16.4856 28.1712 17.9061 27.5849 19.8514 26.4086V20.8894H23.4706V17.3445Z" fill="#FDDFB2"/>
</svg>
