<svg width="32" height="32" viewBox="0 0 32 32" fill="none" xmlns="http://www.w3.org/2000/svg">
<path d="M23.559 14.9062L23.7778 20.6667C23.8102 21.5052 23.478 22.283 22.7812 23C22.0845 23.717 21.1325 24.2852 19.9253 24.7044C18.7182 25.1237 17.4097 25.3333 16 25.3333C14.5903 25.3333 13.2818 25.1237 12.0747 24.7044C10.8675 24.2852 9.91551 23.717 9.21875 23C8.52199 22.283 8.18982 21.5052 8.22222 20.6667L8.44097 14.9062L15.4167 18.2057C15.5949 18.2908 15.7894 18.3333 16 18.3333C16.2106 18.3333 16.4051 18.2908 16.5833 18.2057L23.559 14.9062ZM30 9C30 9.27951 29.9109 9.46788 29.7326 9.5651L16.1215 15.9818C16.0891 15.9939 16.0486 16 16 16C15.9514 16 15.9109 15.9939 15.8785 15.9818L7.95486 12.2266C7.60648 12.6398 7.31887 13.3173 7.09201 14.2591C6.86516 15.201 6.72743 16.2856 6.67882 17.513C7.18924 17.9505 7.44444 18.6128 7.44444 19.5C7.44444 20.3385 7.20949 20.9887 6.73958 21.4505L7.44444 29.3438C7.46065 29.5139 7.42824 29.6658 7.34722 29.7995C7.27431 29.9332 7.17708 30 7.05556 30H4.72222C4.60069 30 4.50347 29.9332 4.43056 29.7995C4.34954 29.6658 4.31713 29.5139 4.33333 29.3438L5.03819 21.4505C4.56829 20.9887 4.33333 20.3385 4.33333 19.5C4.33333 18.6128 4.59664 17.9384 5.12326 17.4766C5.21238 14.9609 5.60938 12.9557 6.31424 11.4609L2.26736 9.5651C2.08912 9.46788 2 9.27951 2 9C2 8.72049 2.08912 8.53212 2.26736 8.4349L15.8785 2.01823C15.9109 2.00608 15.9514 2 16 2C16.0486 2 16.0891 2.00608 16.1215 2.01823L29.7326 8.4349C29.9109 8.53212 30 8.72049 30 9Z" fill="#BFF693"/>
</svg>
