<svg width="32" height="32" viewBox="0 0 32 32" fill="none" xmlns="http://www.w3.org/2000/svg">
<path d="M11.8472 3C11.4162 3 11.0029 3.17121 10.6982 3.47595C10.3934 3.7807 10.2222 4.19402 10.2222 4.625V10.2222H4.625C4.19402 10.2222 3.7807 10.3934 3.47595 10.6982C3.17121 11.0029 3 11.4162 3 11.8472V20.1528C3 20.5838 3.17121 20.9971 3.47595 21.3018C3.7807 21.6066 4.19402 21.7778 4.625 21.7778H10.2222V27.375C10.2222 27.806 10.3934 28.2193 10.6982 28.524C11.0029 28.8288 11.4162 29 11.8472 29H20.1528C20.5838 29 20.9971 28.8288 21.3018 28.524C21.6066 28.2193 21.7778 27.806 21.7778 27.375V21.7778H27.375C27.806 21.7778 28.2193 21.6066 28.524 21.3018C28.8288 20.9971 29 20.5838 29 20.1528V11.8472C29 11.4162 28.8288 11.0029 28.524 10.6982C28.2193 10.3934 27.806 10.2222 27.375 10.2222H21.7778V4.625C21.7778 4.19402 21.6066 3.7807 21.3018 3.47595C20.9971 3.17121 20.5838 3 20.1528 3H11.8472Z" fill="#FFB0AF"/>
</svg>
