<svg width="32" height="32" viewBox="0 0 32 32" fill="none" xmlns="http://www.w3.org/2000/svg">
<path d="M11.3332 12.0003C9.03463 12.0003 6.83023 12.9134 5.20491 14.5387C3.5796 16.164 2.6665 18.3684 2.6665 20.667C2.6665 21.8051 2.89067 22.9321 3.32621 23.9836C3.76176 25.0351 4.40014 25.9905 5.20491 26.7952C6.83023 28.4206 9.03463 29.3337 11.3332 29.3337C12.4713 29.3337 13.5983 29.1095 14.6498 28.6739C15.7012 28.2384 16.6567 27.6 17.4614 26.7952C18.2662 25.9905 18.9046 25.0351 19.3401 23.9836C19.7757 22.9321 19.9998 21.8051 19.9998 20.667V18.547L29.3332 16.0003V12.0003H14.6665V14.667H11.9998V12.0003H11.3332ZM14.6665 2.66699V9.33366H11.9998V2.66699H14.6665ZM8.4665 9.70699C7.57317 9.92033 6.71984 10.2403 5.9065 10.667L2.85317 6.50699L5.01317 4.93366L8.4665 9.70699ZM23.8132 6.50699L21.7598 9.33366H18.4665L21.6532 4.93366L23.8132 6.50699Z" fill="#A6EAD9"/>
</svg>
