<svg width="32" height="32" viewBox="0 0 32 32" fill="none" xmlns="http://www.w3.org/2000/svg">
<g opacity="0.72">
<path d="M21 7H11C8.79086 7 7 8.79086 7 11V21C7 23.2091 8.79086 25 11 25H21C23.2091 25 25 23.2091 25 21V11C25 8.79086 23.2091 7 21 7Z" fill="#CEFFA6"/>
<path d="M11 7V2.5C11 2.36739 11.0527 2.24021 11.1464 2.14645C11.2402 2.05268 11.3674 2 11.5 2H20.5C20.6326 2 20.7598 2.05268 20.8536 2.14645C20.9473 2.24021 21 2.36739 21 2.5V7" fill="#AAFF65"/>
<path d="M21 25V29.5C21 29.6326 20.9473 29.7598 20.8536 29.8536C20.7598 29.9473 20.6326 30 20.5 30H11.5C11.3674 30 11.2402 29.9473 11.1464 29.8536C11.0527 29.7598 11 29.6326 11 29.5V25" fill="#AAFF65"/>
</g>
</svg>
