<svg width="24" height="25" viewBox="0 0 24 25" fill="none" xmlns="http://www.w3.org/2000/svg">
<path d="M16.2377 8.76811C14.0166 6.23844 13.0348 4.08698 12.4724 2.80332C12.2944 2.39889 11.7039 2.39889 11.5276 2.80332C10.9652 4.08698 9.98338 6.23844 7.76228 8.76811C6.37144 10.353 5 12.6731 5 14.9589C5 18.859 8.03022 21.5 12 21.5C15.9698 21.5 19 18.8573 19 14.9589C19 12.5831 17.6286 10.353 16.2377 8.76811Z" fill="#FFB0AF"/>
<path d="M14.0575 15.47C15.2481 13.205 15.0794 10.9888 16.0206 11.3881C17.2994 11.9338 18.715 14.7369 18.1844 17.2775C17.8056 19.0888 16.5831 20.1856 15.025 19.6625C13.7669 19.2406 12.985 17.51 14.0575 15.47Z" fill="#FF9F95"/>
</svg>
