<svg width="24" height="25" viewBox="0 0 24 25" fill="none" xmlns="http://www.w3.org/2000/svg">
<path d="M8.16043 12.0637L9.70578 6.16593L13.0104 15L13.7416 12.0158H21.6973C21.9001 11.2257 22.0021 10.4046 22 9.57938C22 9.22591 21.9814 8.87834 21.9463 8.53666L21.9499 8.5779C21.7488 6.78785 20.9254 3.44341 17.59 2.67505C17.1311 2.56582 16.6645 2.50722 16.1963 2.5H16.0918C15.3209 2.51466 14.5604 2.71341 13.8567 3.08419C13.153 3.45497 12.5207 3.99005 11.9981 4.65697L11.9945 4.66118C11.4719 3.99435 10.8398 3.45905 10.1365 3.0876C9.43311 2.71614 8.67303 2.51625 7.90215 2.5H7.79698C7.29688 2.50926 6.81468 2.57238 6.34678 2.68515L6.39686 2.67505C4.00441 3.28435 2.21008 5.65761 2.03766 8.5577L2.03694 8.5779C1.93595 9.77336 2.04256 10.9805 2.35031 12.126L2.336 12.0629L8.16043 12.0637Z" fill="#F4693D"/>
<path d="M14.5859 13.2477L13.2127 18.8954L9.8958 10L9.03782 13.2971H2.83398C3.89067 16.0582 6.35389 19.5229 11.9701 22.5C17.6581 19.4843 20.1241 16.0154 21.1673 13.2519L14.5859 13.2477Z" fill="#F4693D"/>
</svg>
