<svg width="24" height="25" viewBox="0 0 24 25" fill="none" xmlns="http://www.w3.org/2000/svg">
<path d="M5.75011 2.5C4.7258 2.5 3.84472 2.86892 3.10688 3.60677C2.36903 4.34462 2.00011 5.22569 2.00011 6.25V18.75C2.00011 19.7743 2.36903 20.6554 3.10688 21.3932C3.84472 22.1311 4.7258 22.5 5.75011 22.5H18.2501C19.2744 22.5 20.1555 22.1311 20.8933 21.3932C21.6312 20.6554 22.0001 19.7743 22.0001 18.75V6.25C22.0001 5.22569 21.6312 4.34462 20.8933 3.60677C20.1555 2.86892 19.2744 2.5 18.2501 2.5H5.75011ZM14.3829 14.5833V15.1823C14.3829 15.2691 14.3547 15.3407 14.2983 15.3971C14.2419 15.4536 14.1702 15.4818 14.0834 15.4818H9.91677C9.82997 15.4818 9.75835 15.4536 9.70193 15.3971C9.64551 15.3407 9.61729 15.2691 9.61729 15.1823V14.5833C9.61729 14.3837 9.67806 14.2101 9.79959 14.0625C10.1121 13.6892 10.5787 13.1315 11.1993 12.3893C11.82 11.6471 12.2866 11.0894 12.5991 10.7161H9.91677C9.82997 10.7161 9.75835 10.6879 9.70193 10.6315C9.64551 10.5751 9.61729 10.5035 9.61729 10.4167V9.81771C9.61729 9.7309 9.64551 9.65929 9.70193 9.60287C9.75835 9.54644 9.82997 9.51823 9.91677 9.51823H14.0834C14.1702 9.51823 14.2419 9.54644 14.2983 9.60287C14.3547 9.65929 14.3829 9.7309 14.3829 9.81771V10.4167C14.3829 10.6163 14.3222 10.7899 14.2006 10.9375C13.8881 11.3108 13.4215 11.8685 12.8009 12.6107C12.1802 13.3529 11.7136 13.9106 11.4011 14.2839H14.0834C14.1702 14.2839 14.2419 14.3121 14.2983 14.3685C14.3547 14.4249 14.3829 14.4965 14.3829 14.5833ZM20.3334 18.151V18.75C20.3334 18.8368 20.3052 18.9084 20.2488 18.9648C20.1924 19.0213 20.1208 19.0495 20.034 19.0495H15.8673C15.7805 19.0495 15.7089 19.0213 15.6525 18.9648C15.596 18.9084 15.5678 18.8368 15.5678 18.75V18.151C15.5678 17.9601 15.6286 17.7865 15.7501 17.6302C16.1234 17.1962 16.6616 16.556 17.3647 15.7096C18.0678 14.8633 18.4628 14.388 18.5496 14.2839H15.8673C15.7805 14.2839 15.7089 14.2556 15.6525 14.1992C15.596 14.1428 15.5678 14.0712 15.5678 13.9844V13.3984C15.5678 13.3116 15.596 13.24 15.6525 13.1836C15.7089 13.1272 15.7805 13.099 15.8673 13.099H20.034C20.1208 13.099 20.1924 13.1272 20.2488 13.1836C20.3052 13.24 20.3334 13.3116 20.3334 13.3984V13.9844C20.3334 14.184 20.2727 14.3576 20.1511 14.5052C20.0643 14.6094 19.6694 15.0846 18.9663 15.931C18.2631 16.7773 17.7249 17.4175 17.3517 17.8516H20.034C20.1208 17.8516 20.1924 17.8798 20.2488 17.9362C20.3052 17.9926 20.3334 18.0642 20.3334 18.151ZM8.4324 11.0156V11.6016C8.4324 11.6884 8.40419 11.76 8.34776 11.8164C8.29134 11.8728 8.21972 11.901 8.13292 11.901H3.96625C3.87945 11.901 3.80783 11.8728 3.75141 11.8164C3.69499 11.76 3.66677 11.6884 3.66677 11.6016V11.0156C3.66677 10.816 3.72754 10.6424 3.84907 10.4948C3.93587 10.3906 4.33084 9.91537 5.03396 9.06901C5.73709 8.22266 6.27528 7.58247 6.64854 7.14844H3.96625C3.87945 7.14844 3.80783 7.12023 3.75141 7.0638C3.69499 7.00738 3.66677 6.93576 3.66677 6.84896V6.25C3.66677 6.16319 3.69499 6.09158 3.75141 6.03516C3.80783 5.97873 3.87945 5.95052 3.96625 5.95052H8.13292C8.21972 5.95052 8.29134 5.97873 8.34776 6.03516C8.40419 6.09158 8.4324 6.16319 8.4324 6.25V6.84896C8.4324 7.03993 8.37163 7.21354 8.25011 7.36979C7.87684 7.80382 7.33865 8.44401 6.63552 9.29037C5.9324 10.1367 5.53743 10.612 5.45063 10.7161H8.13292C8.21972 10.7161 8.29134 10.7444 8.34776 10.8008C8.40419 10.8572 8.4324 10.9288 8.4324 11.0156Z" fill="#EAB3FD"/>
</svg>
