<svg width="24" height="25" viewBox="0 0 24 25" fill="none" xmlns="http://www.w3.org/2000/svg">
<circle cx="12" cy="12.5" r="10" fill="#BFF793"/>
<path d="M18.2996 12.5C18.2996 9.02084 15.4788 6.20001 11.9999 6.20001C8.52098 6.20001 5.69961 9.02084 5.69961 12.5C5.69961 15.9792 8.52045 18.8 11.9999 18.8C13.067 18.8 14.0715 18.5333 14.9526 18.065C15.2811 18.2509 15.6616 18.358 16.0679 18.358C17.3003 18.358 18.2996 17.3788 18.2996 16.1713C18.2996 15.6747 18.1306 15.2169 17.8455 14.8499C18.138 14.1238 18.2996 13.3306 18.2996 12.5ZM6.96008 12.5026C6.96008 9.64244 9.22195 7.32404 12.0121 7.32404C14.8022 7.32404 17.064 9.64244 17.064 12.5026C17.064 13.0644 16.9761 13.6046 16.8145 14.1107C16.5748 14.0273 16.3225 13.9849 16.0685 13.9852C14.8361 13.9852 13.8368 14.9644 13.8368 16.1719C13.8368 16.5499 13.9348 16.9053 14.107 17.2156C13.4525 17.5231 12.737 17.6823 12.0126 17.6818C9.22195 17.6812 6.96008 15.3623 6.96008 12.5026ZM16.0685 17.6812C15.2663 17.6923 14.5637 17.0161 14.5749 16.2175C14.5749 15.409 15.2435 14.7538 16.0685 14.7538C16.8669 14.7407 17.5748 15.4206 17.5621 16.2175C17.5621 17.026 16.8929 17.6812 16.0685 17.6812Z" fill="white"/>
</svg>
