<svg width="24" height="25" viewBox="0 0 24 25" fill="none" xmlns="http://www.w3.org/2000/svg">
<path d="M6.11882 17.2956C5.51741 17.3837 4.52741 17.5478 3.86882 16.8006C3.21023 16.0534 2.6407 14.2492 2.39038 12.6367C2.02101 10.2601 2.38757 8.25715 3.42163 6.99715C4.03101 6.25512 4.83069 5.82528 5.73445 5.75684C6.50835 5.69731 7.66476 6.00012 8.78132 7.78137C9.48069 8.89747 10.0127 10.3801 10.241 11.8487C10.5166 13.6215 10.7852 15.5134 9.84538 16.1917C9.31523 16.5747 8.9346 16.7073 8.03507 16.9215C7.29538 17.0973 6.7207 17.207 6.11882 17.2956Z" fill="#3DF4C7"/>
<path d="M5.04937 18.8206L10.1536 17.7678C10.5848 17.6788 10.9308 17.9159 11.0911 18.6266C11.617 20.9591 10.8633 23.75 8.50265 23.75C6.26718 23.75 4.7775 21.2019 4.53422 19.8322C4.42312 19.2111 4.58156 18.9167 5.04937 18.8206Z" fill="#3DF4C7"/>
<path d="M15.9652 12.4223C15.0656 12.209 14.685 12.0754 14.1548 11.6924C13.215 11.0142 13.4836 9.12229 13.7592 7.34948C13.9875 5.88089 14.5195 4.39635 15.2189 3.28214C16.3345 1.50089 17.4909 1.19807 18.2658 1.2576C19.1686 1.32651 19.9688 1.75542 20.5781 2.49745C21.6131 3.75745 21.9797 5.76042 21.6094 8.13698C21.3586 9.74948 20.7909 11.5476 20.1286 12.3009C19.4663 13.0542 18.4819 12.884 17.8786 12.7959C17.2753 12.7078 16.7044 12.5976 15.9652 12.4223Z" fill="#3DF4C7"/>
<path d="M18.9509 14.3207L13.8467 13.2678C13.4154 13.1788 13.0695 13.416 12.9092 14.1266C12.3837 16.4591 13.1374 19.25 15.4981 19.25C17.7335 19.25 19.2232 16.7019 19.4665 15.3322C19.5771 14.7111 19.4187 14.4168 18.9509 14.3207Z" fill="#3DF4C7"/>
</svg>
